<svg width="16" height="16" viewBox="0 0 16 16" fill="none" xmlns="http://www.w3.org/2000/svg">
<rect width="16" height="16" rx="8" fill="#F5F5F5"/>
<path fill-rule="evenodd" clip-rule="evenodd" d="M7.62057 9.9715C5.58109 9.73437 4 8.0467 4 6C4 3.79086 5.84203 2 8.11429 2C10.3865 2 12.2286 3.79086 12.2286 6C12.2286 8.0467 10.6475 9.73437 8.608 9.9715V11.5333H10.0891V12.5333H8.608V14H7.62057V12.5333H6.13943V11.5333H7.62057V9.9715ZM8.608 8.96282C9.15235 8.87998 9.64992 8.66236 10.0624 8.34673L8.608 6.87379V8.96282ZM10.7444 7.62316C11.0587 7.15526 11.2411 6.59807 11.2411 6C11.2411 4.50433 10.1003 3.26429 8.608 3.03718V5.45957L10.7444 7.62316ZM7.62057 8.96282V6.87902L6.16909 8.34898C6.58102 8.6634 7.07752 8.88017 7.62057 8.96282ZM5.48628 7.62628L7.62057 5.46481V3.03718C6.12825 3.26429 4.98743 4.50433 4.98743 6C4.98743 6.59939 5.17065 7.15773 5.48628 7.62628Z" fill="#433F83"/>
</svg>
