<svg width="185" height="64" viewBox="0 0 185 64" fill="none" xmlns="http://www.w3.org/2000/svg">
<path d="M62.8656 12.9451C61.5015 12.9451 60.3431 12.7661 59.3903 12.408C58.4475 12.0498 57.7304 11.5326 57.2389 10.8561C56.7475 10.1697 56.5018 9.33413 56.5018 8.34931C56.5018 7.36449 56.7475 6.53386 57.2389 5.85742C57.7304 5.17103 58.4475 4.64878 59.3903 4.29066C60.3431 3.93255 61.5015 3.75349 62.8656 3.75349C62.8856 3.75349 62.9408 3.75349 63.031 3.75349C63.1313 3.75349 63.2266 3.75349 63.3169 3.75349C63.4172 3.75349 63.4723 3.75349 63.4824 3.75349C64.8364 3.75349 65.9798 3.93255 66.9125 4.29066C67.8553 4.64878 68.5674 5.17103 69.0488 5.85742C69.5302 6.54381 69.771 7.37444 69.771 8.34931C69.771 9.31424 69.5302 10.1449 69.0488 10.8412C68.5774 11.5276 67.8804 12.0498 66.9576 12.408C66.0449 12.7661 64.9266 12.9451 63.6027 12.9451C63.5726 12.9451 63.5024 12.9451 63.3921 12.9451C63.2818 12.9451 63.1715 12.9451 63.0611 12.9451C62.9608 12.9451 62.8956 12.9451 62.8656 12.9451ZM63.0912 11.0799C63.1213 11.0799 63.1614 11.0799 63.2116 11.0799C63.2617 11.0799 63.2968 11.0799 63.3169 11.0799C64.2396 11.0799 65.0019 10.9805 65.6036 10.7815C66.2154 10.5726 66.6718 10.2692 66.9727 9.87131C67.2736 9.46345 67.424 8.95115 67.424 8.33439C67.424 7.71764 67.2686 7.21031 66.9576 6.8124C66.6467 6.41449 66.1904 6.12104 65.5886 5.93203C64.9968 5.73308 64.2496 5.6336 63.347 5.6336C63.3269 5.6336 63.2868 5.6336 63.2266 5.6336C63.1765 5.6336 63.1313 5.6336 63.0912 5.6336C62.1384 5.6336 61.3511 5.7281 60.7292 5.91711C60.1074 6.10611 59.641 6.40454 59.3301 6.8124C59.0192 7.21031 58.8637 7.72261 58.8637 8.34931C58.8637 8.97602 59.0292 9.4933 59.3602 9.90115C59.6912 10.2991 60.1676 10.5975 60.7894 10.7964C61.4213 10.9854 62.1886 11.0799 63.0912 11.0799ZM62.0231 14.0643V2.70898H64.2647V14.0643H62.0231Z" fill="#A09BD0"/>
<path d="M75.3704 13.7211C74.4477 13.7211 73.6353 13.542 72.9332 13.1839C72.2412 12.8258 71.7046 12.3383 71.3235 11.7216C70.9423 11.0949 70.7518 10.3836 70.7518 9.5878C70.7518 8.78204 70.9373 8.07078 71.3084 7.45402C71.6895 6.82732 72.2061 6.33988 72.858 5.99171C73.5099 5.6336 74.2471 5.45454 75.0695 5.45454C75.8619 5.45454 76.574 5.62365 77.2058 5.96187C77.8477 6.29015 78.3542 6.76763 78.7253 7.39434C79.0964 8.01109 79.282 8.75219 79.282 9.61764C79.282 9.70717 79.277 9.81162 79.2669 9.93099C79.2569 10.0404 79.2469 10.1449 79.2368 10.2443H72.6624V8.88649H78.0032L77.1005 9.28937C77.1005 8.87157 77.0153 8.50848 76.8448 8.2001C76.6743 7.89172 76.4386 7.65298 76.1377 7.48387C75.8368 7.30481 75.4858 7.21528 75.0846 7.21528C74.6834 7.21528 74.3273 7.30481 74.0164 7.48387C73.7155 7.65298 73.4798 7.89669 73.3093 8.21502C73.1388 8.5234 73.0536 8.89146 73.0536 9.31921V9.67733C73.0536 10.115 73.1489 10.503 73.3394 10.8412C73.54 11.1695 73.8158 11.4231 74.1669 11.6022C74.5279 11.7713 74.9492 11.8559 75.4306 11.8559C75.8619 11.8559 76.238 11.7912 76.5589 11.6619C76.8899 11.5326 77.1908 11.3386 77.4616 11.0799L78.7103 12.4229C78.3392 12.8407 77.8728 13.164 77.3112 13.3928C76.7495 13.6116 76.1026 13.7211 75.3704 13.7211Z" fill="#A09BD0"/>
<path d="M81.081 13.6017V5.57391H83.5332L86.5872 11.065H85.6093L88.874 5.57391H91.0705L91.1006 13.6017H88.9793V7.96135L89.3404 8.2001L86.5571 12.8258H85.5642L82.7659 8.03596L83.2022 7.93151V13.6017H81.081Z" fill="#A09BD0"/>
<path d="M93.3486 13.6017V5.57391H95.6805V10.3488L99.6222 5.57391H101.774V13.6017H99.4417V8.8268L95.515 13.6017H93.3486Z" fill="#A09BD0"/>
<path d="M104.03 13.6017V5.57391H106.362V8.70743H109.882V5.57391H112.229V13.6017H109.882V10.6025H106.362V13.6017H104.03Z" fill="#A09BD0"/>
<path d="M114.476 13.6017V5.57391H116.807V10.3488L120.749 5.57391H122.9V13.6017H120.569V8.8268L116.642 13.6017H114.476Z" fill="#A09BD0"/>
<path d="M129.008 13.7211C128.135 13.7211 127.358 13.547 126.676 13.1988C125.994 12.8407 125.457 12.3483 125.066 11.7216C124.685 11.0949 124.495 10.3836 124.495 9.5878C124.495 8.78204 124.685 8.07078 125.066 7.45402C125.457 6.82732 125.994 6.33988 126.676 5.99171C127.358 5.6336 128.135 5.45454 129.008 5.45454C129.86 5.45454 130.603 5.6336 131.234 5.99171C131.866 6.33988 132.333 6.84224 132.634 7.49879L130.813 8.46869C130.603 8.09067 130.337 7.81214 130.016 7.63308C129.705 7.45402 129.364 7.36449 128.993 7.36449C128.592 7.36449 128.231 7.45402 127.91 7.63308C127.589 7.81214 127.333 8.0658 127.142 8.39408C126.962 8.72235 126.872 9.12026 126.872 9.5878C126.872 10.0553 126.962 10.4532 127.142 10.7815C127.333 11.1098 127.589 11.3635 127.91 11.5425C128.231 11.7216 128.592 11.8111 128.993 11.8111C129.364 11.8111 129.705 11.7265 130.016 11.5574C130.337 11.3784 130.603 11.0949 130.813 10.7069L132.634 11.6917C132.333 12.3383 131.866 12.8407 131.234 13.1988C130.603 13.547 129.86 13.7211 129.008 13.7211Z" fill="#A09BD0"/>
<path d="M135.775 13.6017V6.94669L136.302 7.48387H133.037V5.57391H140.845V7.48387H137.58L138.107 6.94669V13.6017H135.775Z" fill="#A09BD0"/>
<path d="M145.61 13.7211C144.737 13.7211 143.96 13.547 143.278 13.1988C142.596 12.8407 142.059 12.3483 141.668 11.7216C141.287 11.0949 141.096 10.3836 141.096 9.5878C141.096 8.78204 141.287 8.07078 141.668 7.45402C142.059 6.82732 142.596 6.33988 143.278 5.99171C143.96 5.6336 144.737 5.45454 145.61 5.45454C146.462 5.45454 147.204 5.6336 147.836 5.99171C148.468 6.33988 148.934 6.84224 149.235 7.49879L147.415 8.46869C147.204 8.09067 146.939 7.81214 146.618 7.63308C146.307 7.45402 145.966 7.36449 145.595 7.36449C145.193 7.36449 144.832 7.45402 144.511 7.63308C144.19 7.81214 143.935 8.0658 143.744 8.39408C143.564 8.72235 143.473 9.12026 143.473 9.5878C143.473 10.0553 143.564 10.4532 143.744 10.7815C143.935 11.1098 144.19 11.3635 144.511 11.5425C144.832 11.7216 145.193 11.8111 145.595 11.8111C145.966 11.8111 146.307 11.7265 146.618 11.5574C146.939 11.3784 147.204 11.0949 147.415 10.7069L149.235 11.6917C148.934 12.3383 148.468 12.8407 147.836 13.1988C147.204 13.547 146.462 13.7211 145.61 13.7211Z" fill="#A09BD0"/>
<path d="M156.393 13.6017L153.685 9.7967L155.596 8.67759L159.162 13.6017H156.393ZM150.662 13.6017V5.57391H153.008V13.6017H150.662ZM152.316 10.5577V8.69251H155.145V10.5577H152.316ZM155.822 9.85639L153.625 9.61764L156.469 5.57391H158.966L155.822 9.85639Z" fill="#A09BD0"/>
<path d="M163.855 13.7211C162.993 13.7211 162.226 13.542 161.554 13.1839C160.892 12.8258 160.365 12.3383 159.974 11.7216C159.593 11.0949 159.402 10.3836 159.402 9.5878C159.402 8.78204 159.593 8.07078 159.974 7.45402C160.365 6.82732 160.892 6.33988 161.554 5.99171C162.226 5.6336 162.993 5.45454 163.855 5.45454C164.708 5.45454 165.47 5.6336 166.142 5.99171C166.814 6.33988 167.341 6.82235 167.722 7.4391C168.103 8.05586 168.294 8.77209 168.294 9.5878C168.294 10.3836 168.103 11.0949 167.722 11.7216C167.341 12.3383 166.814 12.8258 166.142 13.1839C165.47 13.542 164.708 13.7211 163.855 13.7211ZM163.855 11.8111C164.247 11.8111 164.598 11.7216 164.909 11.5425C165.22 11.3635 165.465 11.1098 165.646 10.7815C165.826 10.4433 165.917 10.0454 165.917 9.5878C165.917 9.12026 165.826 8.72235 165.646 8.39408C165.465 8.0658 165.22 7.81214 164.909 7.63308C164.598 7.45402 164.247 7.36449 163.855 7.36449C163.464 7.36449 163.113 7.45402 162.802 7.63308C162.491 7.81214 162.241 8.0658 162.05 8.39408C161.87 8.72235 161.779 9.12026 161.779 9.5878C161.779 10.0454 161.87 10.4433 162.05 10.7815C162.241 11.1098 162.491 11.3635 162.802 11.5425C163.113 11.7216 163.464 11.8111 163.855 11.8111Z" fill="#A09BD0"/>
<path d="M173.865 13.7211C172.942 13.7211 172.129 13.542 171.427 13.1839C170.735 12.8258 170.199 12.3383 169.818 11.7216C169.436 11.0949 169.246 10.3836 169.246 9.5878C169.246 8.78204 169.431 8.07078 169.803 7.45402C170.184 6.82732 170.7 6.33988 171.352 5.99171C172.004 5.6336 172.741 5.45454 173.564 5.45454C174.356 5.45454 175.068 5.62365 175.7 5.96187C176.342 6.29015 176.848 6.76763 177.219 7.39434C177.591 8.01109 177.776 8.75219 177.776 9.61764C177.776 9.70717 177.771 9.81162 177.761 9.93099C177.751 10.0404 177.741 10.1449 177.731 10.2443H171.157V8.88649H176.497L175.595 9.28937C175.595 8.87157 175.509 8.50848 175.339 8.2001C175.168 7.89172 174.933 7.65298 174.632 7.48387C174.331 7.30481 173.98 7.21528 173.579 7.21528C173.177 7.21528 172.821 7.30481 172.511 7.48387C172.21 7.65298 171.974 7.89669 171.803 8.21502C171.633 8.5234 171.548 8.89146 171.548 9.31921V9.67733C171.548 10.115 171.643 10.503 171.834 10.8412C172.034 11.1695 172.31 11.4231 172.661 11.6022C173.022 11.7713 173.443 11.8559 173.925 11.8559C174.356 11.8559 174.732 11.7912 175.053 11.6619C175.384 11.5326 175.685 11.3386 175.956 11.0799L177.204 12.4229C176.833 12.8407 176.367 13.164 175.805 13.3928C175.244 13.6116 174.597 13.7211 173.865 13.7211Z" fill="#A09BD0"/>
<path d="M56.1106 29.3795L60.8045 18.9344H63.2116L67.9205 29.3795H65.3629L61.5116 20.158H62.4744L58.608 29.3795H56.1106ZM58.4575 27.1412L59.1044 25.3059H64.5204L65.1824 27.1412H58.4575Z" fill="#A09BD0"/>
<path d="M69.1365 29.3795V21.3517H71.4684V24.4852H74.9888V21.3517H77.3357V29.3795H74.9888V26.3802H71.4684V29.3795H69.1365Z" fill="#A09BD0"/>
<path d="M81.3125 29.3795V22.7245L81.8391 23.2616H78.5744V21.3517H86.3825V23.2616H83.1178L83.6444 22.7245V29.3795H81.3125Z" fill="#A09BD0"/>
<path d="M87.6335 29.3795V21.3517H89.9654V26.1266L93.9071 21.3517H96.0584V29.3795H93.7265V24.6046L89.7999 29.3795H87.6335Z" fill="#A09BD0"/>
<path d="M98.3145 29.3795V21.3517H102.452C103.465 21.3517 104.257 21.5357 104.829 21.9038C105.4 22.2619 105.686 22.7692 105.686 23.4258C105.686 24.0823 105.415 24.5996 104.874 24.9776C104.342 25.3457 103.635 25.5297 102.753 25.5297L102.993 24.9925C103.976 24.9925 104.708 25.1716 105.19 25.5297C105.681 25.8878 105.927 26.4101 105.927 27.0965C105.927 27.8028 105.656 28.3598 105.115 28.7677C104.573 29.1755 103.746 29.3795 102.632 29.3795H98.3145ZM100.466 27.7978H102.437C102.868 27.7978 103.189 27.7281 103.4 27.5889C103.62 27.4397 103.73 27.2158 103.73 26.9174C103.73 26.609 103.63 26.3852 103.43 26.2459C103.229 26.0967 102.913 26.0221 102.482 26.0221H100.466V27.7978ZM100.466 24.6493H102.241C102.652 24.6493 102.958 24.5747 103.159 24.4255C103.369 24.2763 103.475 24.0624 103.475 23.7839C103.475 23.4954 103.369 23.2815 103.159 23.1423C102.958 23.003 102.652 22.9334 102.241 22.9334H100.466V24.6493Z" fill="#A09BD0"/>
<path d="M111.464 29.4988C110.602 29.4988 109.835 29.3198 109.163 28.9617C108.501 28.6035 107.974 28.1161 107.583 27.4994C107.202 26.8727 107.011 26.1614 107.011 25.3656C107.011 24.5598 107.202 23.8486 107.583 23.2318C107.974 22.6051 108.501 22.1177 109.163 21.7695C109.835 21.4114 110.602 21.2323 111.464 21.2323C112.317 21.2323 113.079 21.4114 113.751 21.7695C114.423 22.1177 114.95 22.6001 115.331 23.2169C115.712 23.8336 115.902 24.5499 115.902 25.3656C115.902 26.1614 115.712 26.8727 115.331 27.4994C114.95 28.1161 114.423 28.6035 113.751 28.9617C113.079 29.3198 112.317 29.4988 111.464 29.4988ZM111.464 27.5889C111.856 27.5889 112.207 27.4994 112.517 27.3203C112.828 27.1412 113.074 26.8876 113.255 26.5593C113.435 26.2211 113.525 25.8232 113.525 25.3656C113.525 24.898 113.435 24.5001 113.255 24.1719C113.074 23.8436 112.828 23.5899 112.517 23.4109C112.207 23.2318 111.856 23.1423 111.464 23.1423C111.073 23.1423 110.722 23.2318 110.411 23.4109C110.1 23.5899 109.85 23.8436 109.659 24.1719C109.479 24.5001 109.388 24.898 109.388 25.3656C109.388 25.8232 109.479 26.2211 109.659 26.5593C109.85 26.8876 110.1 27.1412 110.411 27.3203C110.722 27.4994 111.073 27.5889 111.464 27.5889Z" fill="#A09BD0"/>
<path d="M121.473 29.4988C120.551 29.4988 119.738 29.3198 119.036 28.9617C118.344 28.6035 117.808 28.1161 117.426 27.4994C117.045 26.8727 116.855 26.1614 116.855 25.3656C116.855 24.5598 117.04 23.8486 117.411 23.2318C117.793 22.6051 118.309 22.1177 118.961 21.7695C119.613 21.4114 120.35 21.2323 121.173 21.2323C121.965 21.2323 122.677 21.4014 123.309 21.7397C123.951 22.0679 124.457 22.5454 124.828 23.1721C125.199 23.7889 125.385 24.53 125.385 25.3954C125.385 25.4849 125.38 25.5894 125.37 25.7088C125.36 25.8182 125.35 25.9226 125.34 26.0221H118.765V24.6643H124.106L123.204 25.0671C123.204 24.6493 123.118 24.2863 122.948 23.9779C122.777 23.6695 122.542 23.4308 122.241 23.2616C121.94 23.0826 121.589 22.9931 121.188 22.9931C120.786 22.9931 120.43 23.0826 120.119 23.2616C119.819 23.4308 119.583 23.6745 119.412 23.9928C119.242 24.3012 119.157 24.6692 119.157 25.097V25.4551C119.157 25.8928 119.252 26.2808 119.442 26.619C119.643 26.9473 119.919 27.2009 120.27 27.38C120.631 27.5491 121.052 27.6336 121.534 27.6336C121.965 27.6336 122.341 27.569 122.662 27.4397C122.993 27.3103 123.294 27.1164 123.565 26.8577L124.813 28.2007C124.442 28.6185 123.976 28.9418 123.414 29.1706C122.852 29.3894 122.206 29.4988 121.473 29.4988Z" fill="#A09BD0"/>
<path d="M127.184 29.3795V21.3517H129.516V24.4852H133.036V21.3517H135.383V29.3795H133.036V26.3802H129.516V29.3795H127.184Z" fill="#A09BD0"/>
<path d="M137.63 29.3795V21.3517H139.962V24.4852H143.482V21.3517H145.829V29.3795H143.482V26.3802H139.962V29.3795H137.63Z" fill="#A09BD0"/>
<path d="M151.867 29.4988C151.004 29.4988 150.237 29.3198 149.565 28.9617C148.903 28.6035 148.377 28.1161 147.985 27.4994C147.604 26.8727 147.414 26.1614 147.414 25.3656C147.414 24.5598 147.604 23.8486 147.985 23.2318C148.377 22.6051 148.903 22.1177 149.565 21.7695C150.237 21.4114 151.004 21.2323 151.867 21.2323C152.719 21.2323 153.482 21.4114 154.154 21.7695C154.826 22.1177 155.352 22.6001 155.733 23.2169C156.114 23.8336 156.305 24.5499 156.305 25.3656C156.305 26.1614 156.114 26.8727 155.733 27.4994C155.352 28.1161 154.826 28.6035 154.154 28.9617C153.482 29.3198 152.719 29.4988 151.867 29.4988ZM151.867 27.5889C152.258 27.5889 152.609 27.4994 152.92 27.3203C153.231 27.1412 153.477 26.8876 153.657 26.5593C153.838 26.2211 153.928 25.8232 153.928 25.3656C153.928 24.898 153.838 24.5001 153.657 24.1719C153.477 23.8436 153.231 23.5899 152.92 23.4109C152.609 23.2318 152.258 23.1423 151.867 23.1423C151.476 23.1423 151.125 23.2318 150.814 23.4109C150.503 23.5899 150.252 23.8436 150.062 24.1719C149.881 24.5001 149.791 24.898 149.791 25.3656C149.791 25.8232 149.881 26.2211 150.062 26.5593C150.252 26.8876 150.503 27.1412 150.814 27.3203C151.125 27.4994 151.476 27.5889 151.867 27.5889Z" fill="#A09BD0"/>
<path d="M161.876 29.4988C160.953 29.4988 160.141 29.3198 159.439 28.9617C158.747 28.6035 158.21 28.1161 157.829 27.4994C157.448 26.8727 157.257 26.1614 157.257 25.3656C157.257 24.5598 157.443 23.8486 157.814 23.2318C158.195 22.6051 158.712 22.1177 159.364 21.7695C160.015 21.4114 160.753 21.2323 161.575 21.2323C162.367 21.2323 163.08 21.4014 163.711 21.7397C164.353 22.0679 164.86 22.5454 165.231 23.1721C165.602 23.7889 165.788 24.53 165.788 25.3954C165.788 25.4849 165.783 25.5894 165.772 25.7088C165.762 25.8182 165.752 25.9226 165.742 26.0221H159.168V24.6643H164.509L163.606 25.0671C163.606 24.6493 163.521 24.2863 163.35 23.9779C163.18 23.6695 162.944 23.4308 162.643 23.2616C162.342 23.0826 161.991 22.9931 161.59 22.9931C161.189 22.9931 160.833 23.0826 160.522 23.2616C160.221 23.4308 159.985 23.6745 159.815 23.9928C159.644 24.3012 159.559 24.6692 159.559 25.097V25.4551C159.559 25.8928 159.654 26.2808 159.845 26.619C160.046 26.9473 160.321 27.2009 160.672 27.38C161.033 27.5491 161.455 27.6336 161.936 27.6336C162.367 27.6336 162.744 27.569 163.064 27.4397C163.395 27.3103 163.696 27.1164 163.967 26.8577L165.216 28.2007C164.845 28.6185 164.378 28.9418 163.817 29.1706C163.255 29.3894 162.608 29.4988 161.876 29.4988Z" fill="#A09BD0"/>
<path d="M62.2788 45.3363C61.4664 45.3363 60.7092 45.207 60.0071 44.9483C59.3151 44.6798 58.7133 44.3017 58.2018 43.8143C57.6903 43.3269 57.2891 42.7549 56.9982 42.0983C56.7174 41.4418 56.577 40.7206 56.577 39.9347C56.577 39.1488 56.7174 38.4276 56.9982 37.7711C57.2891 37.1145 57.6903 36.5426 58.2018 36.0551C58.7233 35.5677 59.3301 35.1946 60.0222 34.936C60.7142 34.6674 61.4714 34.5331 62.2939 34.5331C63.2066 34.5331 64.029 34.6923 64.7612 35.0106C65.5033 35.319 66.1252 35.7766 66.6267 36.3834L65.062 37.8159C64.701 37.408 64.2998 37.1046 63.8585 36.9056C63.4172 36.6967 62.9358 36.5923 62.4142 36.5923C61.9228 36.5923 61.4714 36.6719 61.0602 36.831C60.649 36.9902 60.293 37.219 59.9921 37.5174C59.6912 37.8159 59.4555 38.169 59.285 38.5769C59.1245 38.9847 59.0443 39.4373 59.0443 39.9347C59.0443 40.4321 59.1245 40.8847 59.285 41.2926C59.4555 41.7004 59.6912 42.0536 59.9921 42.352C60.293 42.6504 60.649 42.8792 61.0602 43.0384C61.4714 43.1975 61.9228 43.2771 62.4142 43.2771C62.9358 43.2771 63.4172 43.1777 63.8585 42.9787C64.2998 42.7698 64.701 42.4564 65.062 42.0386L66.6267 43.4711C66.1252 44.0779 65.5033 44.5405 64.7612 44.8588C64.029 45.1771 63.2015 45.3363 62.2788 45.3363Z" fill="#A09BD0"/>
<path d="M71.5467 45.2766C70.6841 45.2766 69.9169 45.0976 69.2449 44.7394C68.5829 44.3813 68.0564 43.8939 67.6652 43.2771C67.2841 42.6504 67.0935 41.9392 67.0935 41.1434C67.0935 40.3376 67.2841 39.6263 67.6652 39.0096C68.0564 38.3829 68.5829 37.8954 69.2449 37.5473C69.9169 37.1892 70.6841 37.0101 71.5467 37.0101C72.3992 37.0101 73.1614 37.1892 73.8334 37.5473C74.5054 37.8954 75.032 38.3779 75.4131 38.9947C75.7942 39.6114 75.9848 40.3276 75.9848 41.1434C75.9848 41.9392 75.7942 42.6504 75.4131 43.2771C75.032 43.8939 74.5054 44.3813 73.8334 44.7394C73.1614 45.0976 72.3992 45.2766 71.5467 45.2766ZM71.5467 43.3667C71.9378 43.3667 72.2889 43.2771 72.5998 43.0981C72.9107 42.919 73.1564 42.6653 73.337 42.3371C73.5175 41.9989 73.6078 41.6009 73.6078 41.1434C73.6078 40.6758 73.5175 40.2779 73.337 39.9496C73.1564 39.6214 72.9107 39.3677 72.5998 39.1886C72.2889 39.0096 71.9378 38.9201 71.5467 38.9201C71.1555 38.9201 70.8045 39.0096 70.4936 39.1886C70.1826 39.3677 69.9319 39.6214 69.7413 39.9496C69.5608 40.2779 69.4705 40.6758 69.4705 41.1434C69.4705 41.6009 69.5608 41.9989 69.7413 42.3371C69.9319 42.6653 70.1826 42.919 70.4936 43.0981C70.8045 43.2771 71.1555 43.3667 71.5467 43.3667Z" fill="#A09BD0"/>
<path d="M77.599 45.1572V37.1295H85.6478V45.1572H83.3008V38.5172L83.8274 39.0394H79.4043L79.9309 38.5172V45.1572H77.599Z" fill="#A09BD0"/>
<path d="M92.6671 45.2766C91.9851 45.2766 91.3883 45.1274 90.8768 44.829C90.3653 44.5305 89.9641 44.0779 89.6732 43.4711C89.3924 42.8544 89.252 42.0784 89.252 41.1434C89.252 40.1983 89.3874 39.4224 89.6582 38.8156C89.929 38.2088 90.3201 37.7562 90.8316 37.4577C91.3432 37.1593 91.955 37.0101 92.6671 37.0101C93.4293 37.0101 94.1113 37.1842 94.7131 37.5323C95.3249 37.8706 95.8063 38.3481 96.1574 38.9648C96.5184 39.5816 96.699 40.3078 96.699 41.1434C96.699 41.9889 96.5184 42.7201 96.1574 43.3368C95.8063 43.9536 95.3249 44.4311 94.7131 44.7693C94.1113 45.1075 93.4293 45.2766 92.6671 45.2766ZM87.8829 48.052V37.1295H90.1246V38.7708L90.0794 41.1583L90.2299 43.5308V48.052H87.8829ZM92.2609 43.3667C92.652 43.3667 92.998 43.2771 93.2989 43.0981C93.6099 42.919 93.8556 42.6653 94.0361 42.3371C94.2267 41.9989 94.322 41.6009 94.322 41.1434C94.322 40.6758 94.2267 40.2779 94.0361 39.9496C93.8556 39.6214 93.6099 39.3677 93.2989 39.1886C92.998 39.0096 92.652 38.9201 92.2609 38.9201C91.8697 38.9201 91.5187 39.0096 91.2078 39.1886C90.8968 39.3677 90.6511 39.6214 90.4706 39.9496C90.29 40.2779 90.1998 40.6758 90.1998 41.1434C90.1998 41.6009 90.29 41.9989 90.4706 42.3371C90.6511 42.6653 90.8968 42.919 91.2078 43.0981C91.5187 43.2771 91.8697 43.3667 92.2609 43.3667Z" fill="#A09BD0"/>
<path d="M102.135 45.2766C101.273 45.2766 100.505 45.0976 99.8333 44.7394C99.1713 44.3813 98.6448 43.8939 98.2536 43.2771C97.8725 42.6504 97.6819 41.9392 97.6819 41.1434C97.6819 40.3376 97.8725 39.6263 98.2536 39.0096C98.6448 38.3829 99.1713 37.8954 99.8333 37.5473C100.505 37.1892 101.273 37.0101 102.135 37.0101C102.988 37.0101 103.75 37.1892 104.422 37.5473C105.094 37.8954 105.62 38.3779 106.001 38.9947C106.383 39.6114 106.573 40.3276 106.573 41.1434C106.573 41.9392 106.383 42.6504 106.001 43.2771C105.62 43.8939 105.094 44.3813 104.422 44.7394C103.75 45.0976 102.988 45.2766 102.135 45.2766ZM102.135 43.3667C102.526 43.3667 102.877 43.2771 103.188 43.0981C103.499 42.919 103.745 42.6653 103.925 42.3371C104.106 41.9989 104.196 41.6009 104.196 41.1434C104.196 40.6758 104.106 40.2779 103.925 39.9496C103.745 39.6214 103.499 39.3677 103.188 39.1886C102.877 39.0096 102.526 38.9201 102.135 38.9201C101.744 38.9201 101.393 39.0096 101.082 39.1886C100.771 39.3677 100.52 39.6214 100.33 39.9496C100.149 40.2779 100.059 40.6758 100.059 41.1434C100.059 41.6009 100.149 41.9989 100.33 42.3371C100.52 42.6653 100.771 42.919 101.082 43.0981C101.393 43.2771 101.744 43.3667 102.135 43.3667Z" fill="#A09BD0"/>
<path d="M109.624 45.1572V38.5022L110.15 39.0394H106.886V37.1295H114.694V39.0394H111.429L111.956 38.5022V45.1572H109.624Z" fill="#A09BD0"/>
<path d="M115.945 45.1572V37.1295H118.277V41.9044L122.218 37.1295H124.37V45.1572H122.038V40.3824L118.111 45.1572H115.945Z" fill="#A09BD0"/>
<path d="M126.626 45.1572V37.1295H130.763C131.776 37.1295 132.568 37.3135 133.14 37.6816C133.712 38.0397 133.997 38.547 133.997 39.2036C133.997 39.8601 133.727 40.3774 133.185 40.7554C132.653 41.1235 131.946 41.3075 131.064 41.3075L131.304 40.7703C132.287 40.7703 133.02 40.9494 133.501 41.3075C133.992 41.6656 134.238 42.1879 134.238 42.8742C134.238 43.5805 133.967 44.1376 133.426 44.5455C132.884 44.9533 132.057 45.1572 130.943 45.1572H126.626ZM128.777 43.5756H130.748C131.179 43.5756 131.5 43.5059 131.711 43.3667C131.931 43.2174 132.042 42.9936 132.042 42.6952C132.042 42.3868 131.941 42.163 131.741 42.0237C131.54 41.8745 131.224 41.7999 130.793 41.7999H128.777V43.5756ZM128.777 40.4271H130.552C130.963 40.4271 131.269 40.3525 131.47 40.2033C131.681 40.0541 131.786 39.8402 131.786 39.5617C131.786 39.2732 131.681 39.0593 131.47 38.9201C131.269 38.7808 130.963 38.7111 130.552 38.7111H128.777V40.4271Z" fill="#A09BD0"/>
<path d="M134.961 45.1423L135.082 43.2324C135.142 43.2423 135.202 43.2523 135.262 43.2622C135.322 43.2622 135.378 43.2622 135.428 43.2622C135.709 43.2622 135.929 43.1826 136.09 43.0235C136.25 42.8643 136.371 42.6504 136.451 42.3818C136.531 42.1033 136.586 41.79 136.616 41.4418C136.656 41.0936 136.686 40.7305 136.706 40.3525L136.827 37.1295H143.747V45.1572H141.4V38.4724L141.927 39.0394H138.376L138.873 38.4426L138.768 40.457C138.737 41.1732 138.677 41.8297 138.587 42.4266C138.507 43.0235 138.371 43.5407 138.181 43.9784C137.99 44.4062 137.735 44.7394 137.414 44.9782C137.093 45.207 136.681 45.3214 136.18 45.3214C135.999 45.3214 135.809 45.3065 135.608 45.2766C135.408 45.2468 135.192 45.202 134.961 45.1423Z" fill="#A09BD0"/>
<path d="M149.961 45.2766C149.038 45.2766 148.226 45.0976 147.524 44.7394C146.832 44.3813 146.295 43.8939 145.914 43.2771C145.533 42.6504 145.342 41.9392 145.342 41.1434C145.342 40.3376 145.528 39.6263 145.899 39.0096C146.28 38.3829 146.797 37.8954 147.448 37.5473C148.1 37.1892 148.838 37.0101 149.66 37.0101C150.452 37.0101 151.164 37.1792 151.796 37.5174C152.438 37.8457 152.945 38.3232 153.316 38.9499C153.687 39.5667 153.872 40.3078 153.872 41.1732C153.872 41.2627 153.867 41.3672 153.857 41.4865C153.847 41.596 153.837 41.7004 153.827 41.7999H147.253V40.442H152.594L151.691 40.8449C151.691 40.4271 151.606 40.064 151.435 39.7557C151.265 39.4473 151.029 39.2085 150.728 39.0394C150.427 38.8604 150.076 38.7708 149.675 38.7708C149.274 38.7708 148.918 38.8604 148.607 39.0394C148.306 39.2085 148.07 39.4523 147.9 39.7706C147.729 40.079 147.644 40.447 147.644 40.8748V41.2329C147.644 41.6706 147.739 42.0585 147.93 42.3968C148.13 42.725 148.406 42.9787 148.757 43.1578C149.118 43.3269 149.54 43.4114 150.021 43.4114C150.452 43.4114 150.828 43.3468 151.149 43.2174C151.48 43.0881 151.781 42.8941 152.052 42.6355L153.301 43.9784C152.93 44.3962 152.463 44.7195 151.902 44.9483C151.34 45.1672 150.693 45.2766 149.961 45.2766Z" fill="#A09BD0"/>
<path d="M155.671 45.1572V37.1295H158.003V40.263H161.524V37.1295H163.871V45.1572H161.524V42.158H158.003V45.1572H155.671Z" fill="#A09BD0"/>
<path d="M166.117 45.1572V37.1295H168.449V41.9044L172.391 37.1295H174.542V45.1572H172.21V40.3824L168.284 45.1572H166.117Z" fill="#A09BD0"/>
<path d="M180.755 45.2766C179.832 45.2766 179.02 45.0976 178.318 44.7394C177.626 44.3813 177.089 43.8939 176.708 43.2771C176.327 42.6504 176.136 41.9392 176.136 41.1434C176.136 40.3376 176.322 39.6263 176.693 39.0096C177.074 38.3829 177.591 37.8954 178.243 37.5473C178.894 37.1892 179.632 37.0101 180.454 37.0101C181.246 37.0101 181.959 37.1792 182.59 37.5174C183.232 37.8457 183.739 38.3232 184.11 38.9499C184.481 39.5667 184.667 40.3078 184.667 41.1732C184.667 41.2627 184.662 41.3672 184.651 41.4865C184.641 41.596 184.631 41.7004 184.621 41.7999H178.047V40.442H183.388L182.485 40.8449C182.485 40.4271 182.4 40.064 182.229 39.7557C182.059 39.4473 181.823 39.2085 181.522 39.0394C181.221 38.8604 180.87 38.7708 180.469 38.7708C180.068 38.7708 179.712 38.8604 179.401 39.0394C179.1 39.2085 178.864 39.4523 178.694 39.7706C178.523 40.079 178.438 40.447 178.438 40.8748V41.2329C178.438 41.6706 178.533 42.0585 178.724 42.3968C178.925 42.725 179.2 42.9787 179.551 43.1578C179.912 43.3269 180.334 43.4114 180.815 43.4114C181.246 43.4114 181.623 43.3468 181.943 43.2174C182.274 43.0881 182.575 42.8941 182.846 42.6355L184.095 43.9784C183.724 44.3962 183.257 44.7195 182.696 44.9483C182.134 45.1672 181.487 45.2766 180.755 45.2766Z" fill="#A09BD0"/>
<path fill-rule="evenodd" clip-rule="evenodd" d="M20.1096 42.2025C9.15736 40.9554 0.666748 32.0795 0.666748 21.3154C0.666748 9.69692 10.5586 0.27832 22.7609 0.27832C34.9631 0.27832 44.855 9.69692 44.855 21.3154C44.855 32.0795 36.3644 40.9554 25.4122 42.2025V50.4166H33.3661V55.6759H25.4122V63.3894H20.1096V55.6759H12.1557V50.4166H20.1096V42.2025ZM25.4122 36.8976C28.3354 36.4619 31.0074 35.3174 33.2226 33.6574L25.4122 25.9108V36.8976ZM36.8848 29.852C38.5729 27.3912 39.5524 24.4607 39.5524 21.3154C39.5524 13.4492 33.4261 6.92756 25.4122 5.73314V18.4731L36.8848 29.852ZM20.1096 36.8976V25.9384L12.315 33.6693C14.5271 35.3229 17.1933 36.4629 20.1096 36.8976ZM8.64822 29.8684L20.1096 18.5007V5.73314C12.0956 6.92756 5.96934 13.4492 5.96934 21.3154C5.96934 24.4677 6.95323 27.4042 8.64822 29.8684Z" fill="#A09BD0"/>
</svg>
