<svg width="130" height="45" viewBox="0 0 130 45" fill="none" xmlns="http://www.w3.org/2000/svg">
<path d="M43.9449 9.02318C42.9812 9.02318 42.1628 8.89563 41.4896 8.64053C40.8235 8.38543 40.3168 8.01694 39.9696 7.53509C39.6224 7.04614 39.4488 6.4509 39.4488 5.74938C39.4488 5.04785 39.6224 4.45615 39.9696 3.9743C40.3168 3.48535 40.8235 3.11333 41.4896 2.85823C42.1628 2.60313 42.9812 2.47557 43.9449 2.47557C43.9591 2.47557 43.9981 2.47557 44.0619 2.47557C44.1327 2.47557 44.2 2.47557 44.2638 2.47557C44.3347 2.47557 44.3737 2.47557 44.3807 2.47557C45.3374 2.47557 46.1452 2.60313 46.8042 2.85823C47.4703 3.11333 47.9734 3.48535 48.3136 3.9743C48.6537 4.46324 48.8238 5.05493 48.8238 5.74938C48.8238 6.43673 48.6537 7.02843 48.3136 7.52446C47.9805 8.0134 47.488 8.38543 46.8361 8.64053C46.1913 8.89563 45.4012 9.02318 44.4658 9.02318C44.4445 9.02318 44.3949 9.02318 44.317 9.02318C44.239 9.02318 44.1611 9.02318 44.0831 9.02318C44.0123 9.02318 43.9662 9.02318 43.9449 9.02318ZM44.1044 7.69452C44.1256 7.69452 44.154 7.69452 44.1894 7.69452C44.2248 7.69452 44.2497 7.69452 44.2638 7.69452C44.9157 7.69452 45.4543 7.62366 45.8795 7.48194C46.3117 7.33313 46.6341 7.117 46.8467 6.83356C47.0593 6.54303 47.1656 6.17809 47.1656 5.73875C47.1656 5.29941 47.0558 4.93801 46.8361 4.65457C46.6164 4.37112 46.294 4.16208 45.8688 4.02744C45.4508 3.88572 44.9228 3.81486 44.2851 3.81486C44.2709 3.81486 44.2426 3.81486 44.2 3.81486C44.1646 3.81486 44.1327 3.81486 44.1044 3.81486C43.4312 3.81486 42.8749 3.88218 42.4356 4.01681C41.9963 4.15145 41.6667 4.36403 41.4471 4.65457C41.2274 4.93801 41.1176 5.30295 41.1176 5.74938C41.1176 6.1958 41.2345 6.56428 41.4683 6.85482C41.7022 7.13826 42.0388 7.35085 42.4781 7.49257C42.9245 7.62721 43.4666 7.69452 44.1044 7.69452ZM43.3497 9.82037V1.73153H44.9335V9.82037H43.3497Z" fill="#433F83"/>
<path d="M52.7799 9.5759C52.128 9.5759 51.554 9.44835 51.058 9.19325C50.569 8.93814 50.1899 8.59092 49.9206 8.15158C49.6514 7.70515 49.5167 7.19849 49.5167 6.6316C49.5167 6.05762 49.6478 5.55096 49.91 5.11162C50.1793 4.6652 50.5442 4.31797 51.0048 4.06996C51.4654 3.81486 51.9863 3.68731 52.5673 3.68731C53.1271 3.68731 53.6302 3.80777 54.0767 4.0487C54.5302 4.28254 54.888 4.62268 55.1502 5.06911C55.4124 5.50845 55.5435 6.03637 55.5435 6.65286C55.5435 6.71664 55.54 6.79104 55.5329 6.87607C55.5258 6.95402 55.5187 7.02843 55.5116 7.09929H50.8666V6.13203H54.64L54.0023 6.41902C54.0023 6.1214 53.942 5.86275 53.8216 5.64308C53.7011 5.42341 53.5346 5.25335 53.322 5.13288C53.1094 5.00533 52.8614 4.94156 52.578 4.94156C52.2945 4.94156 52.0429 5.00533 51.8233 5.13288C51.6107 5.25335 51.4442 5.42696 51.3237 5.65371C51.2032 5.87338 51.143 6.13557 51.143 6.44028V6.69538C51.143 7.00717 51.2103 7.28353 51.345 7.52446C51.4867 7.7583 51.6816 7.939 51.9296 8.06655C52.1847 8.18701 52.4823 8.24725 52.8224 8.24725C53.1271 8.24725 53.3929 8.20118 53.6196 8.10907C53.8535 8.01694 54.066 7.87877 54.2574 7.69452L55.1396 8.65116C54.8774 8.94877 54.5479 9.17907 54.1511 9.34205C53.7543 9.49795 53.2972 9.5759 52.7799 9.5759Z" fill="#433F83"/>
<path d="M56.8145 9.49086V3.77234H58.5471L60.7048 7.6839H60.0139L62.3205 3.77234H63.8723L63.8936 9.49086H62.3949V5.47302L62.65 5.64308L60.6836 8.93815H59.982L58.005 5.52616L58.3133 5.45176V9.49086H56.8145Z" fill="#433F83"/>
<path d="M65.4819 9.49086V3.77234H67.1294V7.17369L69.9143 3.77234H71.4343V9.49086H69.7868V6.08951L67.0125 9.49086H65.4819Z" fill="#433F83"/>
<path d="M73.0283 9.49086V3.77234H74.6758V6.00448H77.163V3.77234H78.8212V9.49086H77.163V7.35439H74.6758V9.49086H73.0283Z" fill="#433F83"/>
<path d="M80.4085 9.49086V3.77234H82.056V7.17369L84.8409 3.77234H86.3609V9.49086H84.7133V6.08951L81.9391 9.49086H80.4085Z" fill="#433F83"/>
<path d="M90.6759 9.5759C90.0594 9.5759 89.5103 9.45189 89.0284 9.20388C88.5465 8.94877 88.1674 8.59801 87.8911 8.15158C87.6218 7.70515 87.4872 7.19849 87.4872 6.6316C87.4872 6.05762 87.6218 5.55096 87.8911 5.11162C88.1674 4.6652 88.5465 4.31797 89.0284 4.06996C89.5103 3.81486 90.0594 3.68731 90.6759 3.68731C91.2782 3.68731 91.8026 3.81486 92.249 4.06996C92.6955 4.31797 93.025 4.67582 93.2376 5.14351L91.9514 5.83441C91.8026 5.56514 91.6148 5.36672 91.3881 5.23917C91.1684 5.11162 90.9275 5.04785 90.6653 5.04785C90.3818 5.04785 90.1267 5.11162 89.9 5.23917C89.6732 5.36672 89.4925 5.54742 89.3579 5.78126C89.2303 6.01511 89.1666 6.29855 89.1666 6.6316C89.1666 6.96465 89.2303 7.2481 89.3579 7.48194C89.4925 7.71578 89.6732 7.89648 89.9 8.02403C90.1267 8.15158 90.3818 8.21536 90.6653 8.21536C90.9275 8.21536 91.1684 8.15512 91.3881 8.03466C91.6148 7.90711 91.8026 7.70515 91.9514 7.42879L93.2376 8.13032C93.025 8.59092 92.6955 8.94877 92.249 9.20388C91.8026 9.45189 91.2782 9.5759 90.6759 9.5759Z" fill="#433F83"/>
<path d="M95.4572 9.49086V4.75023L95.8292 5.13288H93.5226V3.77234H99.0392V5.13288H96.7327L97.1047 4.75023V9.49086H95.4572Z" fill="#433F83"/>
<path d="M102.405 9.5759C101.789 9.5759 101.24 9.45189 100.758 9.20388C100.276 8.94877 99.8969 8.59801 99.6206 8.15158C99.3513 7.70515 99.2167 7.19849 99.2167 6.6316C99.2167 6.05762 99.3513 5.55096 99.6206 5.11162C99.8969 4.6652 100.276 4.31797 100.758 4.06996C101.24 3.81486 101.789 3.68731 102.405 3.68731C103.008 3.68731 103.532 3.81486 103.979 4.06996C104.425 4.31797 104.755 4.67582 104.967 5.14351L103.681 5.83441C103.532 5.56514 103.344 5.36672 103.118 5.23917C102.898 5.11162 102.657 5.04785 102.395 5.04785C102.111 5.04785 101.856 5.11162 101.63 5.23917C101.403 5.36672 101.222 5.54742 101.087 5.78126C100.96 6.01511 100.896 6.29855 100.896 6.6316C100.896 6.96465 100.96 7.2481 101.087 7.48194C101.222 7.71578 101.403 7.89648 101.63 8.02403C101.856 8.15158 102.111 8.21536 102.395 8.21536C102.657 8.21536 102.898 8.15512 103.118 8.03466C103.344 7.90711 103.532 7.70515 103.681 7.42879L104.967 8.13032C104.755 8.59092 104.425 8.94877 103.979 9.20388C103.532 9.45189 103.008 9.5759 102.405 9.5759Z" fill="#433F83"/>
<path d="M110.024 9.49086L108.111 6.78041L109.461 5.98322L111.98 9.49086H110.024ZM105.975 9.49086V3.77234H107.633V9.49086H105.975ZM107.144 7.3225V5.99385H109.142V7.3225H107.144ZM109.621 6.82293L108.069 6.65286L110.078 3.77234H111.842L109.621 6.82293Z" fill="#433F83"/>
<path d="M115.297 9.5759C114.687 9.5759 114.145 9.44835 113.67 9.19325C113.203 8.93814 112.831 8.59092 112.554 8.15158C112.285 7.70515 112.15 7.19849 112.15 6.6316C112.15 6.05762 112.285 5.55096 112.554 5.11162C112.831 4.6652 113.203 4.31797 113.67 4.06996C114.145 3.81486 114.687 3.68731 115.297 3.68731C115.899 3.68731 116.437 3.81486 116.912 4.06996C117.387 4.31797 117.759 4.66165 118.028 5.10099C118.298 5.54034 118.432 6.05054 118.432 6.6316C118.432 7.19849 118.298 7.70515 118.028 8.15158C117.759 8.59092 117.387 8.93814 116.912 9.19325C116.437 9.44835 115.899 9.5759 115.297 9.5759ZM115.297 8.21536C115.573 8.21536 115.821 8.15158 116.041 8.02403C116.26 7.89648 116.434 7.71578 116.561 7.48194C116.689 7.24101 116.753 6.95756 116.753 6.6316C116.753 6.29855 116.689 6.01511 116.561 5.78126C116.434 5.54742 116.26 5.36672 116.041 5.23917C115.821 5.11162 115.573 5.04785 115.297 5.04785C115.02 5.04785 114.772 5.11162 114.552 5.23917C114.333 5.36672 114.156 5.54742 114.021 5.78126C113.893 6.01511 113.83 6.29855 113.83 6.6316C113.83 6.95756 113.893 7.24101 114.021 7.48194C114.156 7.71578 114.333 7.89648 114.552 8.02403C114.772 8.15158 115.02 8.21536 115.297 8.21536Z" fill="#433F83"/>
<path d="M122.368 9.5759C121.716 9.5759 121.142 9.44835 120.646 9.19325C120.157 8.93814 119.778 8.59092 119.509 8.15158C119.24 7.70515 119.105 7.19849 119.105 6.6316C119.105 6.05762 119.236 5.55096 119.498 5.11162C119.768 4.6652 120.132 4.31797 120.593 4.06996C121.054 3.81486 121.574 3.68731 122.156 3.68731C122.715 3.68731 123.218 3.80777 123.665 4.0487C124.118 4.28254 124.476 4.62268 124.738 5.06911C125.001 5.50845 125.132 6.03637 125.132 6.65286C125.132 6.71664 125.128 6.79104 125.121 6.87607C125.114 6.95402 125.107 7.02843 125.1 7.09929H120.455V6.13203H124.228L123.59 6.41902C123.59 6.1214 123.53 5.86275 123.41 5.64308C123.289 5.42341 123.123 5.25335 122.91 5.13288C122.698 5.00533 122.45 4.94156 122.166 4.94156C121.883 4.94156 121.631 5.00533 121.411 5.13288C121.199 5.25335 121.032 5.42696 120.912 5.65371C120.791 5.87338 120.731 6.13557 120.731 6.44028V6.69538C120.731 7.00717 120.799 7.28353 120.933 7.52446C121.075 7.7583 121.27 7.939 121.518 8.06655C121.773 8.18701 122.071 8.24725 122.411 8.24725C122.715 8.24725 122.981 8.20118 123.208 8.10907C123.442 8.01694 123.654 7.87877 123.846 7.69452L124.728 8.65116C124.466 8.94877 124.136 9.17907 123.739 9.34205C123.342 9.49795 122.885 9.5759 122.368 9.5759Z" fill="#433F83"/>
<path d="M39.1724 20.73L42.4887 13.2896H44.1894L47.5164 20.73H45.7094L42.9883 14.1612H43.6686L40.9369 20.73H39.1724ZM40.8306 19.1357L41.2876 17.8283H45.1142L45.5818 19.1357H40.8306Z" fill="#433F83"/>
<path d="M48.3755 20.73V15.0115H50.023V17.2437H52.5103V15.0115H54.1684V20.73H52.5103V18.5936H50.023V20.73H48.3755Z" fill="#433F83"/>
<path d="M56.9781 20.73V15.9894L57.3501 16.3721H55.0436V15.0115H60.5602V16.3721H58.2536L58.6257 15.9894V20.73H56.9781Z" fill="#433F83"/>
<path d="M61.4441 20.73V15.0115H63.0916V18.4129L65.8764 15.0115H67.3964V20.73H65.7489V17.3287L62.9747 20.73H61.4441Z" fill="#433F83"/>
<path d="M68.9904 20.73V15.0115H71.9134C72.6291 15.0115 73.1889 15.1426 73.5928 15.4048C73.9968 15.6599 74.1987 16.0213 74.1987 16.489C74.1987 16.9567 74.0074 17.3252 73.6247 17.5944C73.2492 17.8566 72.7496 17.9877 72.126 17.9877L72.2961 17.6051C72.9905 17.6051 73.5078 17.7326 73.8479 17.9877C74.1952 18.2428 74.3688 18.6148 74.3688 19.1038C74.3688 19.6069 74.1775 20.0037 73.7948 20.2943C73.4121 20.5848 72.8275 20.73 72.041 20.73H68.9904ZM70.5104 19.6033H71.9028C72.2075 19.6033 72.4343 19.5537 72.5831 19.4545C72.739 19.3482 72.8169 19.1888 72.8169 18.9762C72.8169 18.7566 72.746 18.5971 72.6043 18.4979C72.4626 18.3916 72.2394 18.3385 71.9347 18.3385H70.5104V19.6033ZM70.5104 17.3606H71.7646C72.0552 17.3606 72.2713 17.3074 72.413 17.2011C72.5618 17.0949 72.6362 16.9425 72.6362 16.7441C72.6362 16.5386 72.5618 16.3862 72.413 16.287C72.2713 16.1878 72.0552 16.1382 71.7646 16.1382H70.5104V17.3606Z" fill="#433F83"/>
<path d="M78.2811 20.8151C77.6717 20.8151 77.1296 20.6875 76.6548 20.4324C76.1871 20.1773 75.8151 19.8301 75.5387 19.3908C75.2695 18.9443 75.1348 18.4377 75.1348 17.8708C75.1348 17.2968 75.2695 16.7901 75.5387 16.3508C75.8151 15.9044 76.1871 15.5572 76.6548 15.3091C77.1296 15.054 77.6717 14.9265 78.2811 14.9265C78.8834 14.9265 79.4219 15.054 79.8967 15.3091C80.3715 15.5572 80.7435 15.9008 81.0128 16.3402C81.2821 16.7795 81.4167 17.2897 81.4167 17.8708C81.4167 18.4377 81.2821 18.9443 81.0128 19.3908C80.7435 19.8301 80.3715 20.1773 79.8967 20.4324C79.4219 20.6875 78.8834 20.8151 78.2811 20.8151ZM78.2811 19.4545C78.5574 19.4545 78.8055 19.3908 79.0251 19.2632C79.2448 19.1357 79.4184 18.955 79.546 18.7211C79.6735 18.4802 79.7373 18.1968 79.7373 17.8708C79.7373 17.5377 79.6735 17.2543 79.546 17.0204C79.4184 16.7866 79.2448 16.6059 79.0251 16.4784C78.8055 16.3508 78.5574 16.287 78.2811 16.287C78.0047 16.287 77.7567 16.3508 77.537 16.4784C77.3174 16.6059 77.1402 16.7866 77.0056 17.0204C76.878 17.2543 76.8142 17.5377 76.8142 17.8708C76.8142 18.1968 76.878 18.4802 77.0056 18.7211C77.1402 18.955 77.3174 19.1357 77.537 19.2632C77.7567 19.3908 78.0047 19.4545 78.2811 19.4545Z" fill="#433F83"/>
<path d="M85.3527 20.8151C84.7007 20.8151 84.1268 20.6875 83.6307 20.4324C83.1418 20.1773 82.7627 19.8301 82.4934 19.3908C82.2241 18.9443 82.0895 18.4377 82.0895 17.8708C82.0895 17.2968 82.2206 16.7901 82.4828 16.3508C82.7521 15.9044 83.117 15.5572 83.5776 15.3091C84.0382 15.054 84.559 14.9265 85.1401 14.9265C85.6999 14.9265 86.203 15.047 86.6494 15.2879C87.103 15.5217 87.4608 15.8619 87.723 16.3083C87.9852 16.7476 88.1163 17.2756 88.1163 17.892C88.1163 17.9558 88.1127 18.0302 88.1056 18.1153C88.0986 18.1932 88.0915 18.2676 88.0844 18.3385H83.4394V17.3712H87.2128L86.575 17.6582C86.575 17.3606 86.5148 17.1019 86.3943 16.8823C86.2739 16.6626 86.1073 16.4925 85.8948 16.3721C85.6822 16.2445 85.4342 16.1807 85.1507 16.1807C84.8673 16.1807 84.6157 16.2445 84.396 16.3721C84.1835 16.4925 84.0169 16.6661 83.8965 16.8929C83.776 17.1126 83.7158 17.3748 83.7158 17.6795V17.9346C83.7158 18.2464 83.7831 18.5227 83.9177 18.7636C84.0594 18.9975 84.2543 19.1782 84.5023 19.3057C84.7574 19.4262 85.0551 19.4864 85.3952 19.4864C85.6999 19.4864 85.9656 19.4404 86.1924 19.3482C86.4262 19.2561 86.6388 19.118 86.8301 18.9337L87.7124 19.8903C87.4502 20.188 87.1207 20.4183 86.7238 20.5812C86.327 20.7371 85.87 20.8151 85.3527 20.8151Z" fill="#433F83"/>
<path d="M89.3873 20.73V15.0115H91.0348V17.2437H93.5221V15.0115H95.1802V20.73H93.5221V18.5936H91.0348V20.73H89.3873Z" fill="#433F83"/>
<path d="M96.7675 20.73V15.0115H98.4151V17.2437H100.902V15.0115H102.56V20.73H100.902V18.5936H98.4151V20.73H96.7675Z" fill="#433F83"/>
<path d="M106.826 20.8151C106.217 20.8151 105.675 20.6875 105.2 20.4324C104.732 20.1773 104.36 19.8301 104.084 19.3908C103.815 18.9443 103.68 18.4377 103.68 17.8708C103.68 17.2968 103.815 16.7901 104.084 16.3508C104.36 15.9044 104.732 15.5572 105.2 15.3091C105.675 15.054 106.217 14.9265 106.826 14.9265C107.429 14.9265 107.967 15.054 108.442 15.3091C108.917 15.5572 109.289 15.9008 109.558 16.3402C109.827 16.7795 109.962 17.2897 109.962 17.8708C109.962 18.4377 109.827 18.9443 109.558 19.3908C109.289 19.8301 108.917 20.1773 108.442 20.4324C107.967 20.6875 107.429 20.8151 106.826 20.8151ZM106.826 19.4545C107.103 19.4545 107.351 19.3908 107.57 19.2632C107.79 19.1357 107.964 18.955 108.091 18.7211C108.219 18.4802 108.283 18.1968 108.283 17.8708C108.283 17.5377 108.219 17.2543 108.091 17.0204C107.964 16.7866 107.79 16.6059 107.57 16.4784C107.351 16.3508 107.103 16.287 106.826 16.287C106.55 16.287 106.302 16.3508 106.082 16.4784C105.863 16.6059 105.686 16.7866 105.551 17.0204C105.423 17.2543 105.36 17.5377 105.36 17.8708C105.36 18.1968 105.423 18.4802 105.551 18.7211C105.686 18.955 105.863 19.1357 106.082 19.2632C106.302 19.3908 106.55 19.4545 106.826 19.4545Z" fill="#433F83"/>
<path d="M113.898 20.8151C113.246 20.8151 112.672 20.6875 112.176 20.4324C111.687 20.1773 111.308 19.8301 111.039 19.3908C110.769 18.9443 110.635 18.4377 110.635 17.8708C110.635 17.2968 110.766 16.7901 111.028 16.3508C111.297 15.9044 111.662 15.5572 112.123 15.3091C112.583 15.054 113.104 14.9265 113.685 14.9265C114.245 14.9265 114.748 15.047 115.195 15.2879C115.648 15.5217 116.006 15.8619 116.268 16.3083C116.53 16.7476 116.662 17.2756 116.662 17.892C116.662 17.9558 116.658 18.0302 116.651 18.1153C116.644 18.1932 116.637 18.2676 116.63 18.3385H111.985V17.3712H115.758L115.12 17.6582C115.12 17.3606 115.06 17.1019 114.94 16.8823C114.819 16.6626 114.653 16.4925 114.44 16.3721C114.227 16.2445 113.979 16.1807 113.696 16.1807C113.413 16.1807 113.161 16.2445 112.941 16.3721C112.729 16.4925 112.562 16.6661 112.442 16.8929C112.321 17.1126 112.261 17.3748 112.261 17.6795V17.9346C112.261 18.2464 112.328 18.5227 112.463 18.7636C112.605 18.9975 112.8 19.1782 113.048 19.3057C113.303 19.4262 113.6 19.4864 113.94 19.4864C114.245 19.4864 114.511 19.4404 114.738 19.3482C114.972 19.2561 115.184 19.118 115.375 18.9337L116.258 19.8903C115.995 20.188 115.666 20.4183 115.269 20.5812C114.872 20.7371 114.415 20.8151 113.898 20.8151Z" fill="#433F83"/>
<path d="M43.5304 32.0968C42.9564 32.0968 42.4214 32.0047 41.9254 31.8204C41.4364 31.6291 41.0113 31.3598 40.6499 31.0126C40.2885 30.6654 40.005 30.2579 39.7995 29.7902C39.6011 29.3226 39.5019 28.8088 39.5019 28.249C39.5019 27.6892 39.6011 27.1755 39.7995 26.7078C40.005 26.2401 40.2885 25.8326 40.6499 25.4854C41.0184 25.1382 41.4471 24.8725 41.936 24.6882C42.425 24.4969 42.96 24.4012 43.541 24.4012C44.1859 24.4012 44.7669 24.5146 45.2842 24.7414C45.8086 24.961 46.2479 25.287 46.6023 25.7192L45.4968 26.7397C45.2417 26.4491 44.9583 26.233 44.6465 26.0913C44.3347 25.9425 43.9946 25.8681 43.6261 25.8681C43.2788 25.8681 42.96 25.9247 42.6694 26.0381C42.3789 26.1515 42.1273 26.3145 41.9148 26.5271C41.7022 26.7397 41.5357 26.9912 41.4152 27.2817C41.3018 27.5723 41.2451 27.8947 41.2451 28.249C41.2451 28.6033 41.3018 28.9257 41.4152 29.2163C41.5357 29.5068 41.7022 29.7584 41.9148 29.9709C42.1273 30.1835 42.3789 30.3465 42.6694 30.4599C42.96 30.5733 43.2788 30.63 43.6261 30.63C43.9946 30.63 44.3347 30.5591 44.6465 30.4174C44.9583 30.2686 45.2417 30.0453 45.4968 29.7477L46.6023 30.7681C46.2479 31.2004 45.8086 31.5299 45.2842 31.7566C44.7669 31.9834 44.1823 32.0968 43.5304 32.0968Z" fill="#433F83"/>
<path d="M50.0783 32.0543C49.4689 32.0543 48.9268 31.9267 48.4521 31.6716C47.9844 31.4165 47.6124 31.0693 47.336 30.63C47.0667 30.1835 46.9321 29.6769 46.9321 29.11C46.9321 28.536 47.0667 28.0293 47.336 27.59C47.6124 27.1436 47.9844 26.7963 48.4521 26.5483C48.9268 26.2932 49.4689 26.1657 50.0783 26.1657C50.6807 26.1657 51.2192 26.2932 51.694 26.5483C52.1688 26.7963 52.5408 27.14 52.8101 27.5794C53.0793 28.0187 53.214 28.5289 53.214 29.11C53.214 29.6769 53.0793 30.1835 52.8101 30.63C52.5408 31.0693 52.1688 31.4165 51.694 31.6716C51.2192 31.9267 50.6807 32.0543 50.0783 32.0543ZM50.0783 30.6937C50.3547 30.6937 50.6027 30.63 50.8224 30.5024C51.0421 30.3748 51.2157 30.1942 51.3432 29.9603C51.4708 29.7194 51.5345 29.4359 51.5345 29.11C51.5345 28.7769 51.4708 28.4935 51.3432 28.2596C51.2157 28.0258 51.0421 27.8451 50.8224 27.7175C50.6027 27.59 50.3547 27.5262 50.0783 27.5262C49.802 27.5262 49.554 27.59 49.3343 27.7175C49.1146 27.8451 48.9375 28.0258 48.8028 28.2596C48.6753 28.4935 48.6115 28.7769 48.6115 29.11C48.6115 29.4359 48.6753 29.7194 48.8028 29.9603C48.9375 30.1942 49.1146 30.3748 49.3343 30.5024C49.554 30.63 49.802 30.6937 50.0783 30.6937Z" fill="#433F83"/>
<path d="M54.3544 31.9692V26.2507H60.0411V31.9692H58.3829V27.2392L58.7549 27.6112H55.63L56.002 27.2392V31.9692H54.3544Z" fill="#433F83"/>
<path d="M65.0004 32.0543C64.5185 32.0543 64.0969 31.948 63.7355 31.7354C63.3741 31.5228 63.0906 31.2004 62.8851 30.7681C62.6867 30.3288 62.5875 29.7761 62.5875 29.11C62.5875 28.4368 62.6832 27.8841 62.8745 27.4518C63.0658 27.0196 63.3422 26.6971 63.7036 26.4846C64.065 26.272 64.4972 26.1657 65.0004 26.1657C65.5389 26.1657 66.0208 26.2897 66.4459 26.5377C66.8782 26.7786 67.2183 27.1188 67.4663 27.5581C67.7214 27.9974 67.849 28.5147 67.849 29.11C67.849 29.7123 67.7214 30.2331 67.4663 30.6725C67.2183 31.1118 66.8782 31.4519 66.4459 31.6929C66.0208 31.9338 65.5389 32.0543 65.0004 32.0543ZM61.6203 34.0313V26.2507H63.204V27.4199L63.1721 29.1206L63.2784 30.8106V34.0313H61.6203ZM64.7134 30.6937C64.9897 30.6937 65.2342 30.63 65.4468 30.5024C65.6665 30.3748 65.8401 30.1942 65.9676 29.9603C66.1023 29.7194 66.1696 29.4359 66.1696 29.11C66.1696 28.7769 66.1023 28.4935 65.9676 28.2596C65.8401 28.0258 65.6665 27.8451 65.4468 27.7175C65.2342 27.59 64.9897 27.5262 64.7134 27.5262C64.437 27.5262 64.189 27.59 63.9693 27.7175C63.7497 27.8451 63.576 28.0258 63.4485 28.2596C63.3209 28.4935 63.2572 28.7769 63.2572 29.11C63.2572 29.4359 63.3209 29.7194 63.4485 29.9603C63.576 30.1942 63.7497 30.3748 63.9693 30.5024C64.189 30.63 64.437 30.6937 64.7134 30.6937Z" fill="#433F83"/>
<path d="M71.6897 32.0543C71.0803 32.0543 70.5382 31.9267 70.0634 31.6716C69.5958 31.4165 69.2237 31.0693 68.9474 30.63C68.6781 30.1835 68.5435 29.6769 68.5435 29.11C68.5435 28.536 68.6781 28.0293 68.9474 27.59C69.2237 27.1436 69.5958 26.7963 70.0634 26.5483C70.5382 26.2932 71.0803 26.1657 71.6897 26.1657C72.292 26.1657 72.8306 26.2932 73.3054 26.5483C73.7801 26.7963 74.1522 27.14 74.4214 27.5794C74.6907 28.0187 74.8253 28.5289 74.8253 29.11C74.8253 29.6769 74.6907 30.1835 74.4214 30.63C74.1522 31.0693 73.7801 31.4165 73.3054 31.6716C72.8306 31.9267 72.292 32.0543 71.6897 32.0543ZM71.6897 30.6937C71.9661 30.6937 72.2141 30.63 72.4338 30.5024C72.6534 30.3748 72.827 30.1942 72.9546 29.9603C73.0821 29.7194 73.1459 29.4359 73.1459 29.11C73.1459 28.7769 73.0821 28.4935 72.9546 28.2596C72.827 28.0258 72.6534 27.8451 72.4338 27.7175C72.2141 27.59 71.9661 27.5262 71.6897 27.5262C71.4134 27.5262 71.1653 27.59 70.9457 27.7175C70.726 27.8451 70.5488 28.0258 70.4142 28.2596C70.2867 28.4935 70.2229 28.7769 70.2229 29.11C70.2229 29.4359 70.2867 29.7194 70.4142 29.9603C70.5488 30.1942 70.726 30.3748 70.9457 30.5024C71.1653 30.63 71.4134 30.6937 71.6897 30.6937Z" fill="#433F83"/>
<path d="M76.9806 31.9692V27.2286L77.3526 27.6112H75.0461V26.2507H80.5626V27.6112H78.2561L78.6281 27.2286V31.9692H76.9806Z" fill="#433F83"/>
<path d="M81.4465 31.9692V26.2507H83.094V29.6521L85.8789 26.2507H87.3989V31.9692H85.7514V28.5679L82.9771 31.9692H81.4465Z" fill="#433F83"/>
<path d="M88.9928 31.9692V26.2507H91.9159C92.6316 26.2507 93.1914 26.3818 93.5953 26.644C93.9992 26.8991 94.2012 27.2605 94.2012 27.7282C94.2012 28.1959 94.0098 28.5643 93.6272 28.8336C93.2516 29.0958 92.7521 29.2269 92.1285 29.2269L92.2985 28.8442C92.993 28.8442 93.5103 28.9718 93.8504 29.2269C94.1976 29.482 94.3712 29.854 94.3712 30.343C94.3712 30.8461 94.1799 31.2429 93.7973 31.5334C93.4146 31.824 92.83 31.9692 92.0434 31.9692H88.9928ZM90.5128 30.8425H91.9053C92.21 30.8425 92.4367 30.7929 92.5855 30.6937C92.7414 30.5874 92.8194 30.428 92.8194 30.2154C92.8194 29.9957 92.7485 29.8363 92.6068 29.7371C92.4651 29.6308 92.2418 29.5777 91.9371 29.5777H90.5128V30.8425ZM90.5128 28.5998H91.7671C92.0576 28.5998 92.2737 28.5466 92.4155 28.4403C92.5643 28.334 92.6387 28.1817 92.6387 27.9833C92.6387 27.7778 92.5643 27.6254 92.4155 27.5262C92.2737 27.427 92.0576 27.3774 91.7671 27.3774H90.5128V28.5998Z" fill="#433F83"/>
<path d="M94.8822 31.9586L94.9672 30.5981C95.0097 30.6052 95.0523 30.6122 95.0948 30.6193C95.1373 30.6193 95.1763 30.6193 95.2117 30.6193C95.4101 30.6193 95.566 30.5626 95.6794 30.4493C95.7928 30.3359 95.8778 30.1835 95.9345 29.9922C95.9912 29.7938 96.0301 29.5706 96.0514 29.3226C96.0797 29.0745 96.101 28.8159 96.1152 28.5466L96.2002 26.2507H101.09V31.9692H99.4315V27.2073L99.8035 27.6112H97.295L97.6458 27.1861L97.5714 28.621C97.5501 29.1312 97.5076 29.5989 97.4438 30.0241C97.3871 30.4493 97.2915 30.8177 97.1568 31.1295C97.0222 31.4342 96.8415 31.6716 96.6148 31.8417C96.388 32.0047 96.0975 32.0862 95.7432 32.0862C95.6156 32.0862 95.481 32.0755 95.3392 32.0543C95.1975 32.033 95.0452 32.0011 94.8822 31.9586Z" fill="#433F83"/>
<path d="M105.48 32.0543C104.828 32.0543 104.254 31.9267 103.758 31.6716C103.269 31.4165 102.89 31.0693 102.62 30.63C102.351 30.1835 102.217 29.6769 102.217 29.11C102.217 28.536 102.348 28.0293 102.61 27.59C102.879 27.1436 103.244 26.7963 103.705 26.5483C104.165 26.2932 104.686 26.1657 105.267 26.1657C105.827 26.1657 106.33 26.2861 106.776 26.5271C107.23 26.7609 107.588 27.101 107.85 27.5475C108.112 27.9868 108.243 28.5147 108.243 29.1312C108.243 29.195 108.24 29.2694 108.233 29.3544C108.226 29.4324 108.218 29.5068 108.211 29.5777H103.566V28.6104H107.34L106.702 28.8974C106.702 28.5998 106.642 28.3411 106.521 28.1215C106.401 27.9018 106.234 27.7317 106.022 27.6112C105.809 27.4837 105.561 27.4199 105.278 27.4199C104.994 27.4199 104.743 27.4837 104.523 27.6112C104.31 27.7317 104.144 27.9053 104.023 28.1321C103.903 28.3518 103.843 28.6139 103.843 28.9186V29.1737C103.843 29.4855 103.91 29.7619 104.045 30.0028C104.186 30.2367 104.381 30.4174 104.629 30.5449C104.884 30.6654 105.182 30.7256 105.522 30.7256C105.827 30.7256 106.093 30.6796 106.319 30.5874C106.553 30.4953 106.766 30.3571 106.957 30.1729L107.839 31.1295C107.577 31.4271 107.248 31.6574 106.851 31.8204C106.454 31.9763 105.997 32.0543 105.48 32.0543Z" fill="#433F83"/>
<path d="M109.514 31.9692V26.2507H111.162V28.4828H113.649V26.2507H115.307V31.9692H113.649V29.8328H111.162V31.9692H109.514Z" fill="#433F83"/>
<path d="M116.895 31.9692V26.2507H118.542V29.6521L121.327 26.2507H122.847V31.9692H121.199V28.5679L118.425 31.9692H116.895Z" fill="#433F83"/>
<path d="M127.236 32.0543C126.584 32.0543 126.01 31.9267 125.514 31.6716C125.026 31.4165 124.646 31.0693 124.377 30.63C124.108 30.1835 123.973 29.6769 123.973 29.11C123.973 28.536 124.104 28.0293 124.367 27.59C124.636 27.1436 125.001 26.7963 125.461 26.5483C125.922 26.2932 126.443 26.1657 127.024 26.1657C127.584 26.1657 128.087 26.2861 128.533 26.5271C128.987 26.7609 129.345 27.101 129.607 27.5475C129.869 27.9868 130 28.5147 130 29.1312C130 29.195 129.996 29.2694 129.989 29.3544C129.982 29.4324 129.975 29.5068 129.968 29.5777H125.323V28.6104H129.097L128.459 28.8974C128.459 28.5998 128.399 28.3411 128.278 28.1215C128.158 27.9018 127.991 27.7317 127.778 27.6112C127.566 27.4837 127.318 27.4199 127.034 27.4199C126.751 27.4199 126.499 27.4837 126.28 27.6112C126.067 27.7317 125.901 27.9053 125.78 28.1321C125.66 28.3518 125.599 28.6139 125.599 28.9186V29.1737C125.599 29.4855 125.667 29.7619 125.801 30.0028C125.943 30.2367 126.138 30.4174 126.386 30.5449C126.641 30.6654 126.939 30.7256 127.279 30.7256C127.584 30.7256 127.849 30.6796 128.076 30.5874C128.31 30.4953 128.523 30.3571 128.714 30.1729L129.596 31.1295C129.334 31.4271 129.004 31.6574 128.608 31.8204C128.211 31.9763 127.754 32.0543 127.236 32.0543Z" fill="#433F83"/>
<path fill-rule="evenodd" clip-rule="evenodd" d="M13.7368 29.8644C5.9988 28.976 0 22.6533 0 14.9856C0 6.70927 6.98882 0 15.61 0C24.2311 0 31.22 6.70927 31.22 14.9856C31.22 22.6533 25.2212 28.976 17.4832 29.8644V35.7156H23.1028V39.462H17.4832V44.9567H13.7368V39.462H8.11719V35.7156H13.7368V29.8644ZM17.4832 26.0855C19.5485 25.7751 21.4363 24.9598 23.0014 23.7774L17.4832 18.2591V26.0855ZM25.5888 21.0666C26.7815 19.3136 27.4736 17.2262 27.4736 14.9856C27.4736 9.38219 23.1452 4.73654 17.4832 3.8857V12.9609L25.5888 21.0666ZM13.7368 26.0855V18.2788L8.22974 23.7858C9.79261 24.9637 11.6764 25.7758 13.7368 26.0855ZM5.63908 21.0782L13.7368 12.9806V3.8857C8.07476 4.73654 3.74639 9.38219 3.74639 14.9856C3.74639 17.2311 4.44154 19.3229 5.63908 21.0782Z" fill="#433F83"/>
</svg>
