<svg width="207" height="71" viewBox="0 0 207 71" fill="none" xmlns="http://www.w3.org/2000/svg">
<path d="M69.9739 14.2503C68.4394 14.2503 67.1361 14.0489 66.0642 13.646C65.0036 13.2431 64.1968 12.6612 63.6439 11.9002C63.0911 11.128 62.8146 10.1879 62.8146 9.07999C62.8146 7.97207 63.0911 7.03761 63.6439 6.27661C64.1968 5.50442 65.0036 4.91689 66.0642 4.51401C67.1361 4.11113 68.4394 3.90969 69.9739 3.90969C69.9965 3.90969 70.0585 3.90969 70.1601 3.90969C70.2729 3.90969 70.3801 3.90969 70.4816 3.90969C70.5945 3.90969 70.6565 3.90969 70.6678 3.90969C72.1911 3.90969 73.4774 4.11113 74.5267 4.51401C75.5874 4.91689 76.3885 5.50442 76.9301 6.27661C77.4717 7.0488 77.7425 7.98326 77.7425 9.07999C77.7425 10.1655 77.4717 11.1 76.9301 11.8834C76.3998 12.6556 75.6156 13.2431 74.5775 13.646C73.5507 14.0489 72.2926 14.2503 70.8032 14.2503C70.7694 14.2503 70.6904 14.2503 70.5663 14.2503C70.4422 14.2503 70.318 14.2503 70.1939 14.2503C70.0811 14.2503 70.0077 14.2503 69.9739 14.2503ZM70.2278 12.152C70.2616 12.152 70.3068 12.152 70.3632 12.152C70.4196 12.152 70.4591 12.152 70.4816 12.152C71.5197 12.152 72.3772 12.04 73.0542 11.8162C73.7425 11.5812 74.2559 11.2399 74.5944 10.7922C74.9329 10.3334 75.1022 9.75705 75.1022 9.0632C75.1022 8.36935 74.9273 7.79861 74.5775 7.35096C74.2277 6.90332 73.7143 6.57318 73.0373 6.36055C72.3716 6.13672 71.531 6.02481 70.5155 6.02481C70.4929 6.02481 70.4478 6.02481 70.3801 6.02481C70.3237 6.02481 70.2729 6.02481 70.2278 6.02481C69.1559 6.02481 68.2701 6.13113 67.5705 6.34376C66.871 6.55639 66.3463 6.89212 65.9965 7.35096C65.6467 7.79861 65.4718 8.37495 65.4718 9.07999C65.4718 9.78503 65.658 10.367 66.0304 10.8258C66.4027 11.2735 66.9387 11.6092 67.6382 11.833C68.3491 12.0456 69.2123 12.152 70.2278 12.152ZM69.0261 15.5093V2.73462H71.5479V15.5093H69.0261Z" fill="#F0F0F0"/>
<path d="M84.0419 15.1232C83.0038 15.1232 82.0899 14.9218 81.3 14.5189C80.5215 14.116 79.9178 13.5676 79.4891 12.8738C79.0603 12.1687 78.8459 11.3686 78.8459 10.4733C78.8459 9.5668 79.0546 8.76664 79.4721 8.07279C79.9009 7.36775 80.482 6.81938 81.2154 6.42769C81.9488 6.02481 82.7781 5.82337 83.7034 5.82337C84.5948 5.82337 85.3959 6.01362 86.1067 6.39412C86.8289 6.76343 87.3987 7.3006 87.8162 8.00564C88.2336 8.69949 88.4424 9.53323 88.4424 10.5069C88.4424 10.6076 88.4367 10.7251 88.4255 10.8594C88.4142 10.9825 88.4029 11.1 88.3916 11.2119H80.9954V9.68431H87.0038L85.9883 10.1376C85.9883 9.66752 85.8923 9.25905 85.7005 8.91212C85.5087 8.5652 85.2436 8.29661 84.9051 8.10636C84.5666 7.90492 84.1716 7.8042 83.7203 7.8042C83.269 7.8042 82.8684 7.90492 82.5186 8.10636C82.1801 8.29661 81.915 8.57079 81.7232 8.92891C81.5313 9.27583 81.4354 9.68991 81.4354 10.1711V10.574C81.4354 11.0664 81.5426 11.5029 81.757 11.8834C81.9827 12.2527 82.293 12.538 82.6879 12.7395C83.0941 12.9297 83.568 13.0249 84.1096 13.0249C84.5948 13.0249 85.0179 12.9521 85.379 12.8066C85.7513 12.6612 86.0898 12.4429 86.3945 12.152L87.7992 13.6628C87.3817 14.1328 86.8571 14.4965 86.2252 14.7539C85.5933 15.0001 84.8656 15.1232 84.0419 15.1232Z" fill="#F0F0F0"/>
<path d="M90.4662 14.9889V5.95766H93.225L96.6608 12.1352H95.5607L99.2334 5.95766H101.704L101.738 14.9889H99.3519V8.64354L99.7581 8.91212L96.6269 14.116H95.5099L92.3618 8.72747L92.8527 8.60996V14.9889H90.4662Z" fill="#F0F0F0"/>
<path d="M104.267 14.9889V5.95766H106.891V11.3294L111.325 5.95766H113.745V14.9889H111.122V9.61716L106.705 14.9889H104.267Z" fill="#F0F0F0"/>
<path d="M116.283 14.9889V5.95766H118.907V9.48287H122.867V5.95766H125.508V14.9889H122.867V11.6148H118.907V14.9889H116.283Z" fill="#F0F0F0"/>
<path d="M128.035 14.9889V5.95766H130.658V11.3294L135.093 5.95766H137.513V14.9889H134.89V9.61716L130.472 14.9889H128.035Z" fill="#F0F0F0"/>
<path d="M144.384 15.1232C143.402 15.1232 142.528 14.9274 141.761 14.5357C140.993 14.1328 140.39 13.5788 139.95 12.8738C139.521 12.1687 139.306 11.3686 139.306 10.4733C139.306 9.5668 139.521 8.76664 139.95 8.07279C140.39 7.36775 140.993 6.81938 141.761 6.42769C142.528 6.02481 143.402 5.82337 144.384 5.82337C145.343 5.82337 146.178 6.02481 146.889 6.42769C147.6 6.81938 148.124 7.38453 148.463 8.12315L146.415 9.21428C146.178 8.78902 145.879 8.47567 145.518 8.27423C145.168 8.07279 144.785 7.97207 144.367 7.97207C143.916 7.97207 143.51 8.07279 143.148 8.27423C142.787 8.47567 142.5 8.76104 142.285 9.13035C142.082 9.49966 141.981 9.9473 141.981 10.4733C141.981 10.9993 142.082 11.4469 142.285 11.8162C142.5 12.1855 142.787 12.4709 143.148 12.6723C143.51 12.8738 143.916 12.9745 144.367 12.9745C144.785 12.9745 145.168 12.8794 145.518 12.6891C145.879 12.4877 146.178 12.1687 146.415 11.7323L148.463 12.8402C148.124 13.5676 147.6 14.1328 146.889 14.5357C146.178 14.9274 145.343 15.1232 144.384 15.1232Z" fill="#F0F0F0"/>
<path d="M151.997 14.9889V7.50204L152.59 8.10636H148.917V5.95766H157.701V8.10636H154.028L154.621 7.50204V14.9889H151.997Z" fill="#F0F0F0"/>
<path d="M163.061 15.1232C162.079 15.1232 161.205 14.9274 160.438 14.5357C159.67 14.1328 159.067 13.5788 158.627 12.8738C158.198 12.1687 157.983 11.3686 157.983 10.4733C157.983 9.5668 158.198 8.76664 158.627 8.07279C159.067 7.36775 159.67 6.81938 160.438 6.42769C161.205 6.02481 162.079 5.82337 163.061 5.82337C164.02 5.82337 164.855 6.02481 165.566 6.42769C166.277 6.81938 166.801 7.38453 167.14 8.12315L165.092 9.21428C164.855 8.78902 164.556 8.47567 164.195 8.27423C163.845 8.07279 163.462 7.97207 163.044 7.97207C162.593 7.97207 162.187 8.07279 161.825 8.27423C161.464 8.47567 161.177 8.76104 160.962 9.13035C160.759 9.49966 160.658 9.9473 160.658 10.4733C160.658 10.9993 160.759 11.4469 160.962 11.8162C161.177 12.1855 161.464 12.4709 161.825 12.6723C162.187 12.8738 162.593 12.9745 163.044 12.9745C163.462 12.9745 163.845 12.8794 164.195 12.6891C164.556 12.4877 164.855 12.1687 165.092 11.7323L167.14 12.8402C166.801 13.5676 166.277 14.1328 165.566 14.5357C164.855 14.9274 164.02 15.1232 163.061 15.1232Z" fill="#F0F0F0"/>
<path d="M175.193 14.9889L172.146 10.7083L174.296 9.4493L178.307 14.9889H175.193ZM168.744 14.9889V5.95766H171.385V14.9889H168.744ZM170.606 11.5644V9.46608H173.788V11.5644H170.606ZM174.55 10.7754L172.079 10.5069L175.277 5.95766H178.087L174.55 10.7754Z" fill="#F0F0F0"/>
<path d="M183.588 15.1232C182.617 15.1232 181.754 14.9218 180.998 14.5189C180.253 14.116 179.661 13.5676 179.221 12.8738C178.792 12.1687 178.578 11.3686 178.578 10.4733C178.578 9.5668 178.792 8.76664 179.221 8.07279C179.661 7.36775 180.253 6.81938 180.998 6.42769C181.754 6.02481 182.617 5.82337 183.588 5.82337C184.547 5.82337 185.404 6.02481 186.16 6.42769C186.916 6.81938 187.509 7.36215 187.937 8.056C188.366 8.74985 188.58 9.55561 188.58 10.4733C188.58 11.3686 188.366 12.1687 187.937 12.8738C187.509 13.5676 186.916 14.116 186.16 14.5189C185.404 14.9218 184.547 15.1232 183.588 15.1232ZM183.588 12.9745C184.028 12.9745 184.423 12.8738 184.772 12.6723C185.122 12.4709 185.399 12.1855 185.602 11.8162C185.805 11.4357 185.906 10.9881 185.906 10.4733C185.906 9.9473 185.805 9.49966 185.602 9.13035C185.399 8.76104 185.122 8.47567 184.772 8.27423C184.423 8.07279 184.028 7.97207 183.588 7.97207C183.148 7.97207 182.753 8.07279 182.403 8.27423C182.053 8.47567 181.771 8.76104 181.557 9.13035C181.353 9.49966 181.252 9.9473 181.252 10.4733C181.252 10.9881 181.353 11.4357 181.557 11.8162C181.771 12.1855 182.053 12.4709 182.403 12.6723C182.753 12.8738 183.148 12.9745 183.588 12.9745Z" fill="#F0F0F0"/>
<path d="M194.848 15.1232C193.81 15.1232 192.896 14.9218 192.106 14.5189C191.327 14.116 190.724 13.5676 190.295 12.8738C189.866 12.1687 189.652 11.3686 189.652 10.4733C189.652 9.5668 189.86 8.76664 190.278 8.07279C190.707 7.36775 191.288 6.81938 192.021 6.42769C192.755 6.02481 193.584 5.82337 194.509 5.82337C195.401 5.82337 196.202 6.01362 196.913 6.39412C197.635 6.76343 198.205 7.3006 198.622 8.00564C199.039 8.69949 199.248 9.53323 199.248 10.5069C199.248 10.6076 199.243 10.7251 199.231 10.8594C199.22 10.9825 199.209 11.1 199.197 11.2119H191.801V9.68431H197.81L196.794 10.1376C196.794 9.66752 196.698 9.25905 196.506 8.91212C196.315 8.5652 196.049 8.29661 195.711 8.10636C195.372 7.90492 194.977 7.8042 194.526 7.8042C194.075 7.8042 193.674 7.90492 193.324 8.10636C192.986 8.29661 192.721 8.57079 192.529 8.92891C192.337 9.27583 192.241 9.68991 192.241 10.1711V10.574C192.241 11.0664 192.348 11.5029 192.563 11.8834C192.789 12.2527 193.099 12.538 193.494 12.7395C193.9 12.9297 194.374 13.0249 194.915 13.0249C195.401 13.0249 195.824 12.9521 196.185 12.8066C196.557 12.6612 196.896 12.4429 197.2 12.152L198.605 13.6628C198.188 14.1328 197.663 14.4965 197.031 14.7539C196.399 15.0001 195.671 15.1232 194.848 15.1232Z" fill="#F0F0F0"/>
<path d="M62.3746 32.7389L67.6552 20.9882H70.3632L75.6607 32.7389H72.7834L68.4506 22.3647H69.5338L65.1841 32.7389H62.3746ZM65.0149 30.2209L65.7426 28.1561H71.8356L72.5803 30.2209H65.0149Z" fill="#F0F0F0"/>
<path d="M77.0287 32.7389V23.7077H79.6521V27.2329H83.6125V23.7077H86.2528V32.7389H83.6125V29.3648H79.6521V32.7389H77.0287Z" fill="#F0F0F0"/>
<path d="M90.7267 32.7389V25.252L91.3191 25.8564H87.6464V23.7077H96.4304V25.8564H92.7577L93.3501 25.252V32.7389H90.7267Z" fill="#F0F0F0"/>
<path d="M97.8379 32.7389V23.7077H100.461V29.0794L104.896 23.7077H107.316V32.7389H104.692V27.3672L100.275 32.7389H97.8379Z" fill="#F0F0F0"/>
<path d="M109.854 32.7389V23.7077H114.508C115.648 23.7077 116.539 23.9147 117.182 24.3288C117.826 24.7317 118.147 25.3024 118.147 26.041C118.147 26.7796 117.843 27.3616 117.233 27.7868C116.635 28.2009 115.84 28.4079 114.847 28.4079L115.118 27.8036C116.223 27.8036 117.047 28.0051 117.589 28.4079C118.142 28.8108 118.418 29.3984 118.418 30.1705C118.418 30.9651 118.113 31.5918 117.504 32.0507C116.895 32.5095 115.964 32.7389 114.711 32.7389H109.854ZM112.274 30.9595H114.491C114.977 30.9595 115.338 30.8812 115.575 30.7245C115.823 30.5566 115.947 30.3048 115.947 29.9691C115.947 29.6222 115.834 29.3704 115.608 29.2137C115.383 29.0458 115.027 28.9619 114.542 28.9619H112.274V30.9595ZM112.274 27.4175H114.271C114.734 27.4175 115.078 27.3336 115.304 27.1657C115.541 26.9979 115.659 26.7572 115.659 26.4439C115.659 26.1194 115.541 25.8787 115.304 25.7221C115.078 25.5654 114.734 25.4871 114.271 25.4871H112.274V27.4175Z" fill="#F0F0F0"/>
<path d="M124.648 32.8732C123.677 32.8732 122.814 32.6718 122.058 32.2689C121.313 31.866 120.721 31.3176 120.281 30.6238C119.852 29.9187 119.638 29.1186 119.638 28.2233C119.638 27.3168 119.852 26.5166 120.281 25.8228C120.721 25.1177 121.313 24.5694 122.058 24.1777C122.814 23.7748 123.677 23.5734 124.648 23.5734C125.607 23.5734 126.464 23.7748 127.22 24.1777C127.976 24.5694 128.569 25.1122 128.997 25.806C129.426 26.4999 129.64 27.3056 129.64 28.2233C129.64 29.1186 129.426 29.9187 128.997 30.6238C128.569 31.3176 127.976 31.866 127.22 32.2689C126.464 32.6718 125.607 32.8732 124.648 32.8732ZM124.648 30.7245C125.088 30.7245 125.483 30.6238 125.832 30.4223C126.182 30.2209 126.459 29.9355 126.662 29.5662C126.865 29.1857 126.966 28.7381 126.966 28.2233C126.966 27.6973 126.865 27.2497 126.662 26.8804C126.459 26.511 126.182 26.2257 125.832 26.0242C125.483 25.8228 125.088 25.7221 124.648 25.7221C124.208 25.7221 123.813 25.8228 123.463 26.0242C123.113 26.2257 122.831 26.511 122.617 26.8804C122.413 27.2497 122.312 27.6973 122.312 28.2233C122.312 28.7381 122.413 29.1857 122.617 29.5662C122.831 29.9355 123.113 30.2209 123.463 30.4223C123.813 30.6238 124.208 30.7245 124.648 30.7245Z" fill="#F0F0F0"/>
<path d="M135.908 32.8732C134.87 32.8732 133.956 32.6718 133.166 32.2689C132.387 31.866 131.784 31.3176 131.355 30.6238C130.926 29.9187 130.712 29.1186 130.712 28.2233C130.712 27.3168 130.921 26.5166 131.338 25.8228C131.767 25.1177 132.348 24.5694 133.081 24.1777C133.815 23.7748 134.644 23.5734 135.569 23.5734C136.461 23.5734 137.262 23.7636 137.973 24.1441C138.695 24.5134 139.265 25.0506 139.682 25.7556C140.1 26.4495 140.308 27.2832 140.308 28.2569C140.308 28.3576 140.303 28.4751 140.291 28.6094C140.28 28.7325 140.269 28.85 140.257 28.9619H132.861V27.4343H138.87L137.854 27.8876C137.854 27.4175 137.758 27.009 137.566 26.6621C137.375 26.3152 137.109 26.0466 136.771 25.8564C136.432 25.6549 136.037 25.5542 135.586 25.5542C135.135 25.5542 134.734 25.6549 134.384 25.8564C134.046 26.0466 133.781 26.3208 133.589 26.6789C133.397 27.0258 133.301 27.4399 133.301 27.9211V28.324C133.301 28.8164 133.408 29.2529 133.623 29.6334C133.849 30.0027 134.159 30.288 134.554 30.4895C134.96 30.6797 135.434 30.7749 135.975 30.7749C136.461 30.7749 136.884 30.7021 137.245 30.5566C137.617 30.4112 137.956 30.1929 138.26 29.902L139.665 31.4128C139.248 31.8828 138.723 32.2465 138.091 32.5039C137.459 32.7501 136.731 32.8732 135.908 32.8732Z" fill="#F0F0F0"/>
<path d="M142.332 32.7389V23.7077H144.955V27.2329H148.916V23.7077H151.556V32.7389H148.916V29.3648H144.955V32.7389H142.332Z" fill="#F0F0F0"/>
<path d="M154.084 32.7389V23.7077H156.707V27.2329H160.668V23.7077H163.308V32.7389H160.668V29.3648H156.707V32.7389H154.084Z" fill="#F0F0F0"/>
<path d="M170.1 32.8732C169.13 32.8732 168.267 32.6718 167.511 32.2689C166.766 31.866 166.174 31.3176 165.734 30.6238C165.305 29.9187 165.091 29.1186 165.091 28.2233C165.091 27.3168 165.305 26.5166 165.734 25.8228C166.174 25.1177 166.766 24.5694 167.511 24.1777C168.267 23.7748 169.13 23.5734 170.1 23.5734C171.06 23.5734 171.917 23.7748 172.673 24.1777C173.429 24.5694 174.021 25.1122 174.45 25.806C174.879 26.4999 175.093 27.3056 175.093 28.2233C175.093 29.1186 174.879 29.9187 174.45 30.6238C174.021 31.3176 173.429 31.866 172.673 32.2689C171.917 32.6718 171.06 32.8732 170.1 32.8732ZM170.1 30.7245C170.541 30.7245 170.935 30.6238 171.285 30.4223C171.635 30.2209 171.911 29.9355 172.115 29.5662C172.318 29.1857 172.419 28.7381 172.419 28.2233C172.419 27.6973 172.318 27.2497 172.115 26.8804C171.911 26.511 171.635 26.2257 171.285 26.0242C170.935 25.8228 170.541 25.7221 170.1 25.7221C169.66 25.7221 169.266 25.8228 168.916 26.0242C168.566 26.2257 168.284 26.511 168.069 26.8804C167.866 27.2497 167.765 27.6973 167.765 28.2233C167.765 28.7381 167.866 29.1857 168.069 29.5662C168.284 29.9355 168.566 30.2209 168.916 30.4223C169.266 30.6238 169.66 30.7245 170.1 30.7245Z" fill="#F0F0F0"/>
<path d="M181.361 32.8732C180.323 32.8732 179.409 32.6718 178.619 32.2689C177.84 31.866 177.237 31.3176 176.808 30.6238C176.379 29.9187 176.165 29.1186 176.165 28.2233C176.165 27.3168 176.373 26.5166 176.791 25.8228C177.22 25.1177 177.801 24.5694 178.534 24.1777C179.268 23.7748 180.097 23.5734 181.022 23.5734C181.914 23.5734 182.715 23.7636 183.425 24.1441C184.148 24.5134 184.717 25.0506 185.135 25.7556C185.552 26.4495 185.761 27.2832 185.761 28.2569C185.761 28.3576 185.755 28.4751 185.744 28.6094C185.733 28.7325 185.722 28.85 185.71 28.9619H178.314V27.4343H184.323L183.307 27.8876C183.307 27.4175 183.211 27.009 183.019 26.6621C182.827 26.3152 182.562 26.0466 182.224 25.8564C181.885 25.6549 181.49 25.5542 181.039 25.5542C180.588 25.5542 180.187 25.6549 179.837 25.8564C179.499 26.0466 179.234 26.3208 179.042 26.6789C178.85 27.0258 178.754 27.4399 178.754 27.9211V28.324C178.754 28.8164 178.861 29.2529 179.076 29.6334C179.301 30.0027 179.612 30.288 180.007 30.4895C180.413 30.6797 180.887 30.7749 181.428 30.7749C181.914 30.7749 182.337 30.7021 182.698 30.5566C183.07 30.4112 183.409 30.1929 183.713 29.902L185.118 31.4128C184.7 31.8828 184.176 32.2465 183.544 32.5039C182.912 32.7501 182.184 32.8732 181.361 32.8732Z" fill="#F0F0F0"/>
<path d="M69.3138 50.6903C68.3999 50.6903 67.548 50.5449 66.7581 50.2539C65.9796 49.9517 65.3026 49.5265 64.7271 48.9781C64.1517 48.4297 63.7004 47.7863 63.3731 47.0476C63.0572 46.309 62.8992 45.4977 62.8992 44.6136C62.8992 43.7295 63.0572 42.9181 63.3731 42.1795C63.7004 41.4409 64.1517 40.7974 64.7271 40.249C65.3139 39.7007 65.9965 39.281 66.7751 38.99C67.5536 38.6879 68.4055 38.5368 69.3307 38.5368C70.3575 38.5368 71.2828 38.7158 72.1064 39.074C72.9414 39.4209 73.641 39.9357 74.2051 40.6183L72.4449 42.2299C72.0387 41.771 71.5874 41.4297 71.0909 41.2059C70.5945 40.9709 70.0529 40.8533 69.4661 40.8533C68.9133 40.8533 68.4055 40.9429 67.9429 41.1219C67.4803 41.301 67.0797 41.5584 66.7412 41.8941C66.4027 42.2299 66.1376 42.6271 65.9457 43.086C65.7652 43.5448 65.6749 44.054 65.6749 44.6136C65.6749 45.1731 65.7652 45.6823 65.9457 46.1412C66.1376 46.6 66.4027 46.9973 66.7412 47.333C67.0797 47.6687 67.4803 47.9261 67.9429 48.1052C68.4055 48.2843 68.9133 48.3738 69.4661 48.3738C70.0529 48.3738 70.5945 48.2619 71.0909 48.0381C71.5874 47.803 72.0387 47.4505 72.4449 46.9805L74.2051 48.592C73.641 49.2747 72.9414 49.7951 72.1064 50.1532C71.2828 50.5113 70.3519 50.6903 69.3138 50.6903Z" fill="#F0F0F0"/>
<path d="M79.7402 50.6232C78.7698 50.6232 77.9066 50.4218 77.1506 50.0189C76.4059 49.616 75.8136 49.0676 75.3735 48.3738C74.9447 47.6687 74.7304 46.8686 74.7304 45.9733C74.7304 45.0668 74.9447 44.2666 75.3735 43.5728C75.8136 42.8677 76.4059 42.3194 77.1506 41.9277C77.9066 41.5248 78.7698 41.3234 79.7402 41.3234C80.6992 41.3234 81.5568 41.5248 82.3128 41.9277C83.0687 42.3194 83.6611 42.8622 84.0899 43.556C84.5186 44.2499 84.733 45.0556 84.733 45.9733C84.733 46.8686 84.5186 47.6687 84.0899 48.3738C83.6611 49.0676 83.0687 49.616 82.3128 50.0189C81.5568 50.4218 80.6992 50.6232 79.7402 50.6232ZM79.7402 48.4745C80.1802 48.4745 80.5751 48.3738 80.9249 48.1723C81.2747 47.9709 81.5511 47.6855 81.7542 47.3162C81.9573 46.9357 82.0589 46.4881 82.0589 45.9733C82.0589 45.4473 81.9573 44.9997 81.7542 44.6304C81.5511 44.261 81.2747 43.9757 80.9249 43.7742C80.5751 43.5728 80.1802 43.4721 79.7402 43.4721C79.3001 43.4721 78.9052 43.5728 78.5554 43.7742C78.2056 43.9757 77.9235 44.261 77.7092 44.6304C77.5061 44.9997 77.4045 45.4473 77.4045 45.9733C77.4045 46.4881 77.5061 46.9357 77.7092 47.3162C77.9235 47.6855 78.2056 47.9709 78.5554 48.1723C78.9052 48.3738 79.3001 48.4745 79.7402 48.4745Z" fill="#F0F0F0"/>
<path d="M86.549 50.4889V41.4577H95.6039V50.4889H92.9636V43.0188L93.556 43.6064H88.58L89.1724 43.0188V50.4889H86.549Z" fill="#F0F0F0"/>
<path d="M103.501 50.6232C102.733 50.6232 102.062 50.4553 101.487 50.1196C100.911 49.7839 100.46 49.2747 100.133 48.592C99.8166 47.8982 99.6586 47.0253 99.6586 45.9733C99.6586 44.9101 99.811 44.0372 100.116 43.3546C100.42 42.6719 100.86 42.1627 101.436 41.827C102.011 41.4912 102.699 41.3234 103.501 41.3234C104.358 41.3234 105.125 41.5192 105.802 41.9109C106.491 42.2914 107.032 42.8286 107.427 43.5224C107.833 44.2163 108.037 45.0332 108.037 45.9733C108.037 46.9245 107.833 47.7471 107.427 48.4409C107.032 49.1348 106.491 49.672 105.802 50.0525C105.125 50.433 104.358 50.6232 103.501 50.6232ZM98.1185 53.7455V41.4577H100.64V43.3042L100.59 45.9901L100.759 48.6592V53.7455H98.1185ZM103.044 48.4745C103.484 48.4745 103.873 48.3738 104.211 48.1723C104.561 47.9709 104.838 47.6855 105.041 47.3162C105.255 46.9357 105.362 46.4881 105.362 45.9733C105.362 45.4473 105.255 44.9997 105.041 44.6304C104.838 44.261 104.561 43.9757 104.211 43.7742C103.873 43.5728 103.484 43.4721 103.044 43.4721C102.604 43.4721 102.209 43.5728 101.859 43.7742C101.509 43.9757 101.233 44.261 101.03 44.6304C100.826 44.9997 100.725 45.4473 100.725 45.9733C100.725 46.4881 100.826 46.9357 101.03 47.3162C101.233 47.6855 101.509 47.9709 101.859 48.1723C102.209 48.3738 102.604 48.4745 103.044 48.4745Z" fill="#F0F0F0"/>
<path d="M114.152 50.6232C113.182 50.6232 112.319 50.4218 111.563 50.0189C110.818 49.616 110.226 49.0676 109.785 48.3738C109.357 47.6687 109.142 46.8686 109.142 45.9733C109.142 45.0668 109.357 44.2666 109.785 43.5728C110.226 42.8677 110.818 42.3194 111.563 41.9277C112.319 41.5248 113.182 41.3234 114.152 41.3234C115.111 41.3234 115.969 41.5248 116.725 41.9277C117.481 42.3194 118.073 42.8622 118.502 43.556C118.931 44.2499 119.145 45.0556 119.145 45.9733C119.145 46.8686 118.931 47.6687 118.502 48.3738C118.073 49.0676 117.481 49.616 116.725 50.0189C115.969 50.4218 115.111 50.6232 114.152 50.6232ZM114.152 48.4745C114.592 48.4745 114.987 48.3738 115.337 48.1723C115.687 47.9709 115.963 47.6855 116.166 47.3162C116.369 46.9357 116.471 46.4881 116.471 45.9733C116.471 45.4473 116.369 44.9997 116.166 44.6304C115.963 44.261 115.687 43.9757 115.337 43.7742C114.987 43.5728 114.592 43.4721 114.152 43.4721C113.712 43.4721 113.317 43.5728 112.967 43.7742C112.618 43.9757 112.335 44.261 112.121 44.6304C111.918 44.9997 111.816 45.4473 111.816 45.9733C111.816 46.4881 111.918 46.9357 112.121 47.3162C112.335 47.6855 112.618 47.9709 112.967 48.1723C113.317 48.3738 113.712 48.4745 114.152 48.4745Z" fill="#F0F0F0"/>
<path d="M122.577 50.4889V43.002L123.169 43.6064H119.496V41.4577H128.281V43.6064H124.608L125.2 43.002V50.4889H122.577Z" fill="#F0F0F0"/>
<path d="M129.688 50.4889V41.4577H132.311V46.8294L136.746 41.4577H139.166V50.4889H136.543V45.1172L132.125 50.4889H129.688Z" fill="#F0F0F0"/>
<path d="M141.704 50.4889V41.4577H146.358C147.498 41.4577 148.389 41.6647 149.033 42.0788C149.676 42.4817 149.997 43.0524 149.997 43.791C149.997 44.5296 149.693 45.1116 149.083 45.5368C148.485 45.9509 147.69 46.1579 146.697 46.1579L146.968 45.5536C148.073 45.5536 148.897 45.7551 149.439 46.1579C149.992 46.5608 150.268 47.1484 150.268 47.9205C150.268 48.7151 149.963 49.3418 149.354 49.8007C148.745 50.2595 147.814 50.4889 146.562 50.4889H141.704ZM144.124 48.7095H146.341C146.827 48.7095 147.188 48.6312 147.425 48.4745C147.673 48.3066 147.797 48.0548 147.797 47.7191C147.797 47.3722 147.684 47.1204 147.459 46.9637C147.233 46.7958 146.877 46.7119 146.392 46.7119H144.124V48.7095ZM144.124 45.1675H146.121C146.584 45.1675 146.928 45.0836 147.154 44.9157C147.391 44.7479 147.509 44.5072 147.509 44.1939C147.509 43.8694 147.391 43.6287 147.154 43.4721C146.928 43.3154 146.584 43.2371 146.121 43.2371H144.124V45.1675Z" fill="#F0F0F0"/>
<path d="M151.082 50.4721L151.217 48.3234C151.285 48.3346 151.352 48.3458 151.42 48.357C151.488 48.357 151.55 48.357 151.606 48.357C151.922 48.357 152.171 48.2675 152.351 48.0884C152.532 47.9094 152.667 47.6687 152.757 47.3666C152.848 47.0532 152.91 46.7007 152.943 46.309C152.989 45.9173 153.022 45.5089 153.045 45.0836L153.18 41.4577H160.966V50.4889H158.326V42.9685L158.918 43.6064H154.924L155.482 42.9349L155.364 45.2011C155.33 46.0069 155.262 46.7455 155.161 47.4169C155.07 48.0884 154.918 48.6703 154.704 49.1628C154.489 49.644 154.202 50.0189 153.84 50.2875C153.479 50.5449 153.017 50.6736 152.453 50.6736C152.249 50.6736 152.035 50.6568 151.809 50.6232C151.584 50.5896 151.341 50.5393 151.082 50.4721Z" fill="#F0F0F0"/>
<path d="M167.956 50.6232C166.918 50.6232 166.004 50.4218 165.214 50.0189C164.436 49.616 163.832 49.0676 163.403 48.3738C162.975 47.6687 162.76 46.8686 162.76 45.9733C162.76 45.0668 162.969 44.2666 163.386 43.5728C163.815 42.8677 164.396 42.3194 165.13 41.9277C165.863 41.5248 166.692 41.3234 167.618 41.3234C168.509 41.3234 169.31 41.5136 170.021 41.8941C170.743 42.2634 171.313 42.8006 171.73 43.5056C172.148 44.1995 172.357 45.0332 172.357 46.0069C172.357 46.1076 172.351 46.2251 172.34 46.3594C172.328 46.4825 172.317 46.6 172.306 46.7119H164.91V45.1843H170.918L169.903 45.6376C169.903 45.1675 169.807 44.759 169.615 44.4121C169.423 44.0652 169.158 43.7966 168.819 43.6064C168.481 43.4049 168.086 43.3042 167.635 43.3042C167.183 43.3042 166.783 43.4049 166.433 43.6064C166.094 43.7966 165.829 44.0708 165.637 44.4289C165.446 44.7758 165.35 45.1899 165.35 45.6711V46.074C165.35 46.5664 165.457 47.0029 165.671 47.3834C165.897 47.7527 166.207 48.0381 166.602 48.2395C167.008 48.4297 167.482 48.5249 168.024 48.5249C168.509 48.5249 168.932 48.4521 169.293 48.3066C169.666 48.1612 170.004 47.9429 170.309 47.652L171.714 49.1628C171.296 49.6328 170.771 49.9965 170.139 50.2539C169.508 50.5001 168.78 50.6232 167.956 50.6232Z" fill="#F0F0F0"/>
<path d="M174.381 50.4889V41.4577H177.004V44.9829H180.964V41.4577H183.605V50.4889H180.964V47.1148H177.004V50.4889H174.381Z" fill="#F0F0F0"/>
<path d="M186.132 50.4889V41.4577H188.756V46.8294L193.19 41.4577H195.61V50.4889H192.987V45.1172L188.569 50.4889H186.132Z" fill="#F0F0F0"/>
<path d="M202.6 50.6232C201.561 50.6232 200.647 50.4218 199.858 50.0189C199.079 49.616 198.475 49.0676 198.047 48.3738C197.618 47.6687 197.404 46.8686 197.404 45.9733C197.404 45.0668 197.612 44.2666 198.03 43.5728C198.459 42.8677 199.04 42.3194 199.773 41.9277C200.506 41.5248 201.336 41.3234 202.261 41.3234C203.152 41.3234 203.954 41.5136 204.664 41.8941C205.387 42.2634 205.956 42.8006 206.374 43.5056C206.791 44.1995 207 45.0332 207 46.0069C207 46.1076 206.994 46.2251 206.983 46.3594C206.972 46.4825 206.961 46.6 206.949 46.7119H199.553V45.1843H205.561L204.546 45.6376C204.546 45.1675 204.45 44.759 204.258 44.4121C204.066 44.0652 203.801 43.7966 203.463 43.6064C203.124 43.4049 202.729 43.3042 202.278 43.3042C201.827 43.3042 201.426 43.4049 201.076 43.6064C200.738 43.7966 200.473 44.0708 200.281 44.4289C200.089 44.7758 199.993 45.1899 199.993 45.6711V46.074C199.993 46.5664 200.1 47.0029 200.315 47.3834C200.54 47.7527 200.851 48.0381 201.246 48.2395C201.652 48.4297 202.126 48.5249 202.667 48.5249C203.152 48.5249 203.576 48.4521 203.937 48.3066C204.309 48.1612 204.647 47.9429 204.952 47.652L206.357 49.1628C205.939 49.6328 205.415 49.9965 204.783 50.2539C204.151 50.5001 203.423 50.6232 202.6 50.6232Z" fill="#F0F0F0"/>
<path fill-rule="evenodd" clip-rule="evenodd" d="M21.8732 47.1647C9.55194 45.7617 0 35.7763 0 23.6667C0 10.5959 11.1284 0 24.8559 0C38.5834 0 49.7118 10.5959 49.7118 23.6667C49.7118 35.7763 40.1598 45.7617 27.8386 47.1647V56.4056H36.7867V62.3222H27.8386V71H21.8732V62.3222H12.9251V56.4056H21.8732V47.1647ZM27.8386 41.1967C31.1272 40.7065 34.1332 39.419 36.6253 37.5515L27.8386 28.8366V41.1967ZM40.7453 33.2704C42.6444 30.5019 43.7464 27.2052 43.7464 23.6667C43.7464 14.8173 36.8543 7.4804 27.8386 6.13668V20.4691L40.7453 33.2704ZM21.8732 41.1967V28.8676L13.1043 37.5648C15.5929 39.4251 18.5924 40.7077 21.8732 41.1967ZM8.97916 33.2888L21.8732 20.5001V6.13668C12.8575 7.4804 5.96541 14.8173 5.96541 23.6667C5.96541 27.2131 7.0723 30.5166 8.97916 33.2888Z" fill="#F0F0F0"/>
</svg>
