<svg width="32" height="32" viewBox="0 0 32 32" fill="none" xmlns="http://www.w3.org/2000/svg">
<g clip-path="url(#clip0_125_91)">
<path d="M31.3335 0.333984H0.333496V31.334H31.3335V0.333984Z" fill="#433F83"/>
<path d="M21.7386 8.60059C21.0049 8.60059 20.4104 9.19504 20.4104 9.92883C20.4104 10.6626 21.0049 11.2571 21.7386 11.2571C22.4724 11.2571 23.0669 10.6626 23.0669 9.92883C23.0669 9.19504 22.4724 8.60059 21.7386 8.60059Z" fill="#DADADA"/>
<path d="M26.3179 8.58706C26.0346 7.85792 25.6584 7.24024 25.0407 6.62721C24.423 6.00953 23.81 5.63335 23.0809 5.35006C22.3749 5.07605 21.5715 4.89028 20.3919 4.83455C19.2122 4.77882 18.8361 4.76953 15.8313 4.76953C12.8265 4.76953 12.4503 4.78346 11.2707 4.83455C10.091 4.89028 9.2876 5.07605 8.58633 5.35006C7.85719 5.63335 7.23951 6.00953 6.62648 6.62721C6.0088 7.24024 5.63262 7.85792 5.34932 8.58706C5.07532 9.28833 4.88955 10.0964 4.83382 11.2714C4.78273 12.451 4.7688 12.8272 4.7688 15.832C4.7688 18.8368 4.78273 19.213 4.83382 20.3926C4.88955 21.5722 5.07532 22.3757 5.34932 23.077C5.63262 23.8061 6.0088 24.4238 6.62648 25.0368C7.23951 25.6545 7.85719 26.0307 8.58633 26.314C9.29224 26.588 10.0957 26.7737 11.2707 26.8295C12.4503 26.8852 12.8265 26.8945 15.8313 26.8945C18.8361 26.8945 19.2122 26.8805 20.3919 26.8295C21.5715 26.7737 22.3749 26.588 23.0809 26.314C23.81 26.0307 24.423 25.6545 25.0407 25.0368C25.6584 24.4238 26.0346 23.8061 26.3179 23.077C26.5919 22.371 26.7776 21.5676 26.8334 20.3926C26.8845 19.213 26.8984 18.8368 26.8984 15.832C26.8984 12.8272 26.8845 12.451 26.8334 11.2714C26.7776 10.0918 26.5919 9.28833 26.3179 8.58706ZM24.841 20.2997C24.7899 21.3772 24.6134 21.9623 24.4602 22.3525C24.2605 22.868 24.019 23.2349 23.6335 23.625C23.248 24.0104 22.8765 24.2519 22.361 24.4516C21.9709 24.6049 21.3857 24.7814 20.3083 24.8325C19.1426 24.8835 18.7896 24.8975 15.8359 24.8975C12.8822 24.8975 12.5292 24.8882 11.3636 24.8325C10.2861 24.7814 9.70093 24.6002 9.31082 24.4516C8.79532 24.2519 8.42378 24.0104 8.03831 23.625C7.65284 23.2395 7.41135 22.868 7.21165 22.3525C7.05839 21.9623 6.88191 21.3772 6.83082 20.2997C6.77974 19.134 6.7658 18.7811 6.7658 15.8274C6.7658 12.8737 6.77509 12.5253 6.83082 11.3596C6.88191 10.2822 7.05839 9.69702 7.21165 9.30691C7.41135 8.7914 7.65284 8.41987 8.03831 8.0344C8.42378 7.64893 8.79532 7.40743 9.31082 7.20773C9.70093 7.05448 10.2861 6.878 11.3636 6.82691C12.3853 6.78047 12.78 6.76654 14.8421 6.76654C15.0325 6.76654 15.2415 6.76654 15.4644 6.76654H15.8313C18.785 6.76654 19.1379 6.77582 20.3036 6.83155C21.3811 6.88264 21.9663 7.05912 22.3564 7.21238C22.8719 7.41208 23.2388 7.65358 23.6289 8.03904C24.0143 8.42451 24.2558 8.79605 24.4555 9.31155C24.6088 9.70167 24.7853 10.2868 24.8364 11.3643C24.8875 12.53 24.9014 12.8829 24.9014 15.832C24.9014 18.7811 24.8921 19.134 24.8364 20.2997H24.841Z" fill="#DADADA"/>
<path d="M15.8359 10.1523C12.6964 10.1523 10.156 12.6974 10.156 15.8322C10.156 18.967 12.701 21.512 15.8359 21.512C18.9707 21.512 21.5157 18.967 21.5157 15.8322C21.5157 12.6974 18.9707 10.1523 15.8359 10.1523ZM15.8359 19.5243C13.7971 19.5243 12.1484 17.871 12.1484 15.8368C12.1484 13.8027 13.8017 12.1493 15.8359 12.1493C17.87 12.1493 19.5233 13.8027 19.5233 15.8368C19.5233 17.871 17.87 19.5243 15.8359 19.5243Z" fill="#DADADA"/>
<path d="M21.7386 11.2571C21.0049 11.2571 20.4104 10.6626 20.4104 9.92883C20.4104 9.19504 21.0049 8.60059 21.7386 8.60059C22.4724 8.60059 23.0669 9.19504 23.0669 9.92883C23.0669 10.6626 22.4724 11.2571 21.7386 11.2571Z" fill="#DADADA"/>
</g>
<defs>
<clipPath id="clip0_125_91">
<rect width="31" height="31" fill="white" transform="translate(0.333496 0.333984)"/>
</clipPath>
</defs>
</svg>
