<svg width="32" height="32" viewBox="0 0 32 32" fill="none" xmlns="http://www.w3.org/2000/svg">
<g clip-path="url(#clip0_125_107)">
<path d="M31.3335 0.333984H0.333496V31.334H31.3335V0.333984Z" fill="#433F83"/>
<path d="M16.6301 4.96387C18.0512 4.98709 19.4537 5.15892 20.8145 5.57226C22.6118 6.12027 24.0329 7.16057 24.9896 8.79068C25.4262 9.53375 25.677 10.3418 25.7141 11.201C25.7931 12.9101 25.3101 14.4427 24.1815 15.743C23.406 16.6394 22.4353 17.2617 21.3161 17.6425C20.7588 17.8283 20.1875 17.9583 19.6209 18.1209C18.8964 18.3299 18.1905 18.5853 17.5496 19.0079C16.8112 19.4956 16.2353 20.1365 15.8313 20.9167C15.4551 21.6458 15.1207 22.3982 14.7678 23.1412C14.4194 23.8797 14.0711 24.6135 13.5649 25.259C13.0587 25.9092 12.4503 26.4154 11.6283 26.6012C10.4208 26.8705 9.34798 26.5965 8.44236 25.7327C7.74573 25.0732 7.31846 24.2419 6.98873 23.3549C6.58468 22.2914 6.35711 21.1814 6.19921 20.0575C6.03202 18.8825 5.93914 17.7029 5.93914 16.5186C5.93914 15.7709 5.92985 15.0185 5.98093 14.2708C6.07846 12.8451 6.36176 11.4518 6.94693 10.1375C7.55996 8.75817 8.46093 7.6157 9.72416 6.77046C10.4672 6.26889 11.2846 5.92057 12.1345 5.65121C13.054 5.35862 13.9968 5.16821 14.9582 5.07533C15.5108 5.0196 16.0728 5.00102 16.6301 4.96851V4.96387Z" fill="#DADADA"/>
</g>
<defs>
<clipPath id="clip0_125_107">
<rect width="31" height="31" fill="white" transform="translate(0.333496 0.333984)"/>
</clipPath>
</defs>
</svg>
