<svg width="32" height="32" viewBox="0 0 32 32" fill="none" xmlns="http://www.w3.org/2000/svg">
<g clip-path="url(#clip0_125_87)">
<path d="M31.667 0.333984H0.666992V31.334H31.667V0.333984Z" fill="#433F83"/>
<path fill-rule="evenodd" clip-rule="evenodd" d="M13.2899 24.391L13.6522 18.948L23.5536 10.0126C23.9902 9.62714 23.4607 9.43673 22.8802 9.78968L10.6613 17.499L5.38551 15.8504C4.24769 15.502 4.2384 14.7172 5.64095 14.1552L26.2054 6.22759C27.1436 5.80032 28.0492 6.45515 27.6916 7.89021L24.1899 24.3957C23.9437 25.5707 23.2378 25.8493 22.2532 25.3059L16.9171 21.363L14.3535 23.857C14.3535 23.857 14.3395 23.8709 14.3302 23.8802C14.0423 24.1588 13.8054 24.391 13.2853 24.391H13.2899Z" fill="#DADADA"/>
</g>
<defs>
<clipPath id="clip0_125_87">
<rect width="31" height="31" fill="white" transform="translate(0.666992 0.333984)"/>
</clipPath>
</defs>
</svg>
