<svg width="32" height="31" viewBox="0 0 32 31" fill="none" xmlns="http://www.w3.org/2000/svg">
<g clip-path="url(#clip0_127_164)">
<path d="M31.3335 0H0.333496V31H31.3335V0Z" fill="#433F83"/>
<path d="M20.1456 11.9213C20.127 12.0095 20.0991 12.0745 20.0991 12.1396C20.0991 12.5993 20.1177 13.0638 20.1177 13.5235C20.1177 15.3905 20.1177 17.2575 20.1177 19.1244C20.1177 19.7886 20.0898 20.4527 19.918 21.0982C19.2353 23.6665 17.6284 25.3384 15.0741 26.0814C14.1917 26.3369 13.2861 26.4344 12.3665 26.3276C11.4191 26.2161 10.5646 25.8539 9.75184 25.3755C7.9499 24.3213 6.83993 22.7655 6.4684 20.7174C6.05971 18.4835 6.64023 16.5051 8.15889 14.8146C9.20383 13.6489 10.5228 12.9477 12.06 12.669C12.7009 12.5529 13.3465 12.5622 13.992 12.6272C14.1174 12.6411 14.1778 12.7015 14.1778 12.8316C14.1778 13.988 14.1778 15.1444 14.1778 16.3008C14.1778 16.4447 14.1081 16.4633 13.9874 16.4354C12.961 16.1893 12.0275 16.3983 11.2287 17.0763C10.2581 17.8984 9.89117 18.9712 10.2023 20.2019C10.5181 21.4465 11.3448 22.2407 12.6127 22.5147C14.2614 22.8723 15.9426 21.7902 16.2816 20.0765C16.3187 19.8907 16.3234 19.7003 16.3373 19.5099C16.3373 19.4867 16.3373 19.4635 16.3373 19.4402C16.342 14.954 16.3466 10.4677 16.3512 5.98137C16.3512 5.63305 16.3373 5.28938 16.3373 4.94107C16.3373 4.63455 16.3605 4.61133 16.6578 4.61133C17.6702 4.61133 18.6826 4.61133 19.6951 4.61133C19.7508 4.61133 19.8112 4.61133 19.8669 4.61133C20.0852 4.62062 20.0991 4.63919 20.113 4.85283C20.1734 5.7956 20.4149 6.69193 20.9676 7.46751C21.9196 8.80504 23.2014 9.61313 24.8548 9.78496C25.3099 9.8314 25.3099 9.8314 25.3099 10.2958C25.3099 11.2897 25.3099 12.2835 25.3099 13.2774C25.3099 13.5375 25.2867 13.57 25.0359 13.556C23.299 13.4725 21.6874 12.9941 20.257 11.9817C20.2291 11.9631 20.1966 11.9492 20.1363 11.912L20.1456 11.9213Z" fill="#DADADA"/>
</g>
<defs>
<clipPath id="clip0_127_164">
<rect width="31" height="31" fill="white" transform="translate(0.333496)"/>
</clipPath>
</defs>
</svg>
