<svg width="32" height="32" viewBox="0 0 32 32" fill="none" xmlns="http://www.w3.org/2000/svg">
<g clip-path="url(#clip0_125_99)">
<path d="M31.3335 0.333984H0.333496V31.334H31.3335V0.333984Z" fill="#433F83"/>
<path d="M14.6747 18.9621C14.5214 19.134 14.3728 19.3012 14.2288 19.473C13.3232 20.5086 12.4129 21.5443 11.5073 22.58C10.7828 23.4113 10.0537 24.2379 9.32919 25.0692C9.00874 25.4361 8.68364 25.803 8.36319 26.1746C8.33068 26.2117 8.29817 26.2303 8.24709 26.2303C7.11855 26.2303 5.99465 26.2303 4.86611 26.2303C4.84754 26.2303 4.82896 26.2303 4.81503 26.2303C4.81038 26.221 4.80574 26.221 4.80574 26.2164V26.2071C7.54117 23.0769 10.2812 19.9467 13.026 16.8072C10.1326 13.0222 7.23465 9.23719 4.33203 5.43824C4.38312 5.43824 4.41563 5.43359 4.44349 5.43359C6.7981 5.43359 9.15271 5.43359 11.512 5.43359C11.5863 5.43359 11.6327 5.45681 11.6745 5.51719C12.9749 7.24019 14.2799 8.96318 15.5803 10.6862C15.91 11.1227 16.2397 11.5546 16.5648 11.9912C16.5881 12.0191 16.6113 12.0469 16.6345 12.0841C16.7135 11.9958 16.7831 11.9169 16.8528 11.8333C17.777 10.7791 18.6965 9.72483 19.6207 8.6706C20.5403 7.62101 21.4552 6.57142 22.3747 5.52183C22.4258 5.46146 22.4815 5.43824 22.5605 5.43824C23.6565 5.43824 24.7526 5.43824 25.8532 5.43824H25.96C25.96 5.43824 25.9647 5.45217 25.9693 5.46146C23.4057 8.39195 20.8421 11.3178 18.2785 14.2529C21.2973 18.2469 24.316 22.2316 27.344 26.2349C27.3069 26.2349 27.2836 26.2442 27.2651 26.2442C24.9523 26.2442 22.6394 26.2442 20.3266 26.2442C20.2663 26.2442 20.2291 26.2257 20.1966 26.1792C19.1563 24.8185 18.1206 23.4624 17.0803 22.1016C16.3094 21.0938 15.5338 20.0814 14.7629 19.0736C14.7397 19.0411 14.7118 19.0132 14.6839 18.9761L14.6747 18.9621ZM8.46072 7.43524C8.50252 7.49562 8.53038 7.53277 8.56289 7.56992C9.77967 9.16288 11.0011 10.7512 12.2179 12.3442C13.8294 14.4526 15.4456 16.5611 17.0571 18.6695C18.4272 20.4576 19.7926 22.2456 21.1579 24.0336C21.1997 24.0847 21.2369 24.1079 21.3019 24.1079C21.8871 24.1079 22.4723 24.1079 23.0574 24.1079C23.0853 24.1079 23.1132 24.1079 23.1596 24.1079C23.1364 24.0707 23.1224 24.0522 23.1039 24.0289C23.0063 23.8989 22.9042 23.7642 22.8066 23.6342C21.418 21.7997 20.0341 19.9699 18.6454 18.1355C17.1639 16.1803 15.6871 14.2204 14.2056 12.2652C13.0074 10.6815 11.8045 9.09322 10.611 7.50955C10.5645 7.44917 10.5227 7.42595 10.4484 7.42595C9.82611 7.42595 9.19915 7.42595 8.57683 7.42595C8.54896 7.42595 8.51645 7.42595 8.46072 7.42595V7.43524Z" fill="#DADADA"/>
</g>
<defs>
<clipPath id="clip0_125_99">
<rect width="31" height="31" fill="white" transform="translate(0.333496 0.333984)"/>
</clipPath>
</defs>
</svg>
